STARTFONT 2.1
FONT -FontForge-Segment7-Book-R-Normal--56-540-75-75-P-288-ISO10646-1
SIZE 54 75 75
FONTBOUNDINGBOX 58 58 -2 -11
COMMENT "Generated by fontforge, http://fontforge.sourceforge.net"
STARTPROPERTIES 40
FOUNDRY "FontForge"
FAMILY_NAME "Segment7"
WEIGHT_NAME "Book"
SLANT "R"
SETWIDTH_NAME "Normal"
ADD_STYLE_NAME ""
PIXEL_SIZE 56
POINT_SIZE 540
RESOLUTION_X 75
RESOLUTION_Y 75
SPACING "P"
AVERAGE_WIDTH 288
CHARSET_REGISTRY "ISO10646"
CHARSET_ENCODING "1"
FONTNAME_REGISTRY ""
CHARSET_COLLECTIONS "Symbol ISO10646-1"
FONT_NAME "Segment7"
FACE_NAME "Segment7"
FONT_VERSION "1.00;September 13, 2019;FontCreator 11.5.0.2430 64-bit"
FONT_ASCENT 44
FONT_DESCENT 12
UNDERLINE_POSITION -8
UNDERLINE_THICKNESS 5
X_HEIGHT 38
CAP_HEIGHT 38
DEFAULT_CHAR 1
RAW_ASCENT 799
RAW_DESCENT 200
NORM_SPACE 14
RELATIVE_WEIGHT 40
RELATIVE_SETWIDTH 50
SUPERSCRIPT_X 0
SUPERSCRIPT_Y 26
SUPERSCRIPT_SIZE 36
SUBSCRIPT_X 0
SUBSCRIPT_Y 7
SUBSCRIPT_SIZE 36
FIGURE_WIDTH 30
AVG_LOWERCASE_WIDTH 297
AVG_UPPERCASE_WIDTH 300
ENDPROPERTIES
CHARS 240
STARTCHAR .null
ENCODING 0
SWIDTH 0 0
DWIDTH 0 0
BBX 1 1 0 0
BITMAP
00
ENDCHAR
STARTCHAR .null.dup1
ENCODING 29
SWIDTH 0 0
DWIDTH 0 0
BBX 1 1 0 0
BITMAP
00
ENDCHAR
STARTCHAR space
ENCODING 32
SWIDTH 248 0
DWIDTH 14 0
BBX 1 1 0 0
BITMAP
00
ENDCHAR
STARTCHAR exclam
ENCODING 33
SWIDTH 202 0
DWIDTH 11 0
BBX 6 28 0 0
BITMAP
C0
E0
F0
F8
FC
FC
FC
FC
FC
FC
FC
FC
FC
F8
F0
60
00
00
00
00
00
00
FC
FC
FC
FC
FC
FC
ENDCHAR
STARTCHAR quotedbl
ENCODING 34
SWIDTH 341 0
DWIDTH 19 0
BBX 15 16 0 21
BITMAP
C020
E030
F038
F83C
FC3E
FC3E
FC3E
FC3E
FC3E
FC3E
FC3E
FC3E
FC3E
F83C
F038
6030
ENDCHAR
STARTCHAR numbersign
ENCODING 35
SWIDTH 652 0
DWIDTH 37 0
BBX 30 39 3 0
BITMAP
0001C0E0
0001C0E0
000180C0
000380C0
000381C0
00030180
00070180
00070380
00060380
00060300
000E0700
000E0700
000C0600
1FFFFFFC
1FFFFFFC
1FFFFFFC
00180C00
00381C00
00301C00
00301800
00703800
00703800
00603000
7FFFFFF0
7FFFFFE0
FFFFFFE0
00C06000
01C0E000
0180E000
0180C000
0381C000
0381C000
03018000
07018000
07038000
06038000
06030000
0E070000
0E070000
ENDCHAR
STARTCHAR dollar
ENCODING 36
SWIDTH 536 0
DWIDTH 30 0
BBX 24 39 0 0
BITMAP
1FFFFC
3FFFFC
DFFFF9
EFFFF3
F7FFE7
FBFFCF
FC001F
FC003F
FC003F
00003F
00003F
00003F
00003F
00003F
00001F
00000F
07FFE7
0FFFF2
1FFFF8
1FFFF8
0FFFF0
07FFE0
000000
000000
000000
000000
000000
000000
000000
000000
000000
000000
000000
01FFC0
07FFE0
0FFFF0
1FFFF8
3FFFFC
3FFFFC
ENDCHAR
STARTCHAR percent
ENCODING 37
SWIDTH 536 0
DWIDTH 30 0
BBX 24 39 0 0
BITMAP
1FF000
3FF800
DFE400
EFCE00
F79E00
FB3E00
FC7E00
FC7E00
F87E1F
F33E3F
E79E7F
CFCEFF
5FE5FE
3FFBFC
1FF7F8
000FF0
001FE0
003FC0
007F80
00FF00
01FE00
03FC00
07F800
0FF000
1FEFF8
3FDFFC
7FCFFA
FF67E7
FE73CF
FC799F
F87C3F
007E3F
007E3F
007D9F
007BCF
0077E7
006FF2
001FFC
001FF8
ENDCHAR
STARTCHAR ampersand
ENCODING 38
SWIDTH 536 0
DWIDTH 30 0
BBX 24 39 0 0
BITMAP
1FFFFC
3FFFFC
DFFFF9
EFFFF3
F7FFE7
FBFFCF
FC001F
FC003F
FC003F
00003F
00003F
00003F
00003F
00003F
00001F
00000F
07FFE7
0FFFF2
1FFFF8
1FFFF8
0FFFF0
07FFE0
000000
000000
000000
000000
000000
000000
000000
000000
000000
000000
000000
01FFC0
07FFE0
0FFFF0
1FFFF8
3FFFFC
3FFFFC
ENDCHAR
STARTCHAR quotesingle
ENCODING 39
SWIDTH 196 0
DWIDTH 11 0
BBX 6 16 0 21
BITMAP
C0
E0
F0
F8
FC
FC
FC
FC
FC
FC
FC
FC
FC
F8
F0
60
ENDCHAR
STARTCHAR parenleft
ENCODING 40
SWIDTH 536 0
DWIDTH 30 0
BBX 24 39 0 0
BITMAP
1FFFFC
3FFFFC
DFFFF9
EFFFF3
F7FFE7
FBFFCF
FC001F
FC003F
FC003F
00003F
00003F
00003F
00003F
00003F
00001F
00000F
07FFE7
0FFFF2
1FFFF8
1FFFF8
0FFFF0
07FFE0
000000
000000
000000
000000
000000
000000
000000
000000
000000
000000
000000
01FFC0
07FFE0
0FFFF0
1FFFF8
3FFFFC
3FFFFC
ENDCHAR
STARTCHAR parenright
ENCODING 41
SWIDTH 536 0
DWIDTH 30 0
BBX 24 39 0 0
BITMAP
1FFFFC
3FFFFC
DFFFF9
EFFFF3
F7FFE7
FBFFCF
FC001F
FC003F
FC003F
00003F
00003F
00003F
00003F
00003F
00001F
00000F
07FFE7
0FFFF2
1FFFF8
1FFFF8
0FFFF0
07FFE0
000000
000000
000000
000000
000000
000000
000000
000000
000000
000000
000000
01FFC0
07FFE0
0FFFF0
1FFFF8
3FFFFC
3FFFFC
ENDCHAR
STARTCHAR asterisk
ENCODING 42
SWIDTH 536 0
DWIDTH 30 0
BBX 24 39 0 0
BITMAP
1FFFFC
3FFFFC
DFFFF9
EFFFF3
F7FFE7
FBFFCF
FC001F
FC003F
FC003F
00003F
00003F
00003F
00003F
00003F
00001F
00000F
07FFE7
0FFFF2
1FFFF8
1FFFF8
0FFFF0
07FFE0
000000
000000
000000
000000
000000
000000
000000
000000
000000
000000
000000
01FFC0
07FFE0
0FFFF0
1FFFF8
3FFFFC
3FFFFC
ENDCHAR
STARTCHAR plus
ENCODING 43
SWIDTH 495 0
DWIDTH 28 0
BBX 23 24 2 8
BITMAP
003C00
003C00
003C00
003C00
003C00
003C00
003C00
003C00
003C00
003C00
FFFFFE
FFFFFE
FFFFFE
FFFFFE
003C00
003C00
003C00
003C00
003C00
003C00
003C00
003C00
003C00
003C00
ENDCHAR
STARTCHAR comma
ENCODING 44
SWIDTH 173 0
DWIDTH 10 0
BBX 6 16 0 2
BITMAP
60
F0
F8
FC
FC
FC
FC
FC
FC
FC
FC
FC
F8
F0
E0
C0
ENDCHAR
STARTCHAR hyphen
ENCODING 45
SWIDTH 488 0
DWIDTH 27 0
BBX 18 6 3 17
BITMAP
3FFF00
7FFF80
FFFFC0
FFFFC0
7FFF80
3FFF00
ENDCHAR
STARTCHAR period
ENCODING 46
SWIDTH 202 0
DWIDTH 11 0
BBX 6 6 0 0
BITMAP
FC
FC
FC
FC
FC
FC
ENDCHAR
STARTCHAR slash
ENCODING 47
SWIDTH 536 0
DWIDTH 30 0
BBX 24 24 0 8
BITMAP
00000E
00001F
00003F
00007F
0000FF
0001FE
0003FC
0007F8
000FF0
001FE0
003FC0
007F80
00FF00
01FE00
03FC00
07F800
0FF000
1FE000
3FC000
7F8000
FF0000
FC0000
F80000
F00000
ENDCHAR
STARTCHAR zero
ENCODING 48
SWIDTH 536 0
DWIDTH 30 0
BBX 24 39 0 0
BITMAP
1FFFFC
3FFFFC
DFFFF9
EFFFF3
F7FFE7
FBFFCF
FC001F
FC003F
FC003F
FC003F
FC003F
FC003F
FC003F
FC003F
FC003F
F8001F
F0000F
600006
000000
000000
000000
600006
F0000F
F8001F
FC003F
FC003F
FC003F
FC003F
FC003F
FC003F
FC003F
FC003F
FC001F
F9FFCF
F7FFE7
EFFFF3
DFFFF9
3FFFFC
3FFFFC
ENDCHAR
STARTCHAR one
ENCODING 49
SWIDTH 536 0
DWIDTH 30 0
BBX 12 37 12 2
BITMAP
FF80
FFC0
FF90
FF30
FE70
FCF0
01F0
03F0
03F0
03F0
03F0
03F0
03F0
03F0
03F0
01F0
00F0
0070
0020
0000
0000
0020
0070
00F0
01F0
03F0
03F0
03F0
03F0
03F0
03F0
03F0
03F0
01F0
00F0
0070
0030
ENDCHAR
STARTCHAR two
ENCODING 50
SWIDTH 536 0
DWIDTH 30 0
BBX 24 39 0 0
BITMAP
1FFFFC
3FFFFC
DFFFF9
EFFFF3
F7FFE7
FBFFCF
FC001F
FC003F
FC003F
00003F
00003F
00003F
00003F
00003F
00001F
00000F
07FFE7
0FFFF2
1FFFF8
1FFFF8
4FFFF0
E7FFE0
F00000
F80000
FC0000
FC0000
FC0000
FC0000
FC0000
FC0000
FC0000
FC0000
FC0000
F9FFC0
F7FFE0
EFFFF0
DFFFF8
3FFFFC
3FFFFC
ENDCHAR
STARTCHAR three
ENCODING 51
SWIDTH 536 0
DWIDTH 30 0
BBX 24 39 0 0
BITMAP
1FFFFC
3FFFFC
DFFFF9
EFFFF3
F7FFE7
FBFFCF
FC001F
FC003F
FC003F
00003F
00003F
00003F
00003F
00003F
00001F
00000F
07FFE7
0FFFF2
1FFFF8
1FFFF8
0FFFF2
07FFE7
00000F
00001F
00003F
00003F
00003F
00003F
00003F
00003F
FC003F
FC003F
FC001F
F9FFCF
F7FFE7
EFFFF3
DFFFF9
3FFFFC
3FFFFC
ENDCHAR
STARTCHAR four
ENCODING 52
SWIDTH 536 0
DWIDTH 30 0
BBX 24 35 0 2
BITMAP
C00003
E00007
F0000F
F8001F
FC003F
FC003F
FC003F
FC003F
FC003F
FC003F
FC003F
FC003F
FC003F
F8001F
F0000F
67FFF6
0FFFF8
1FFFF8
0FFFF0
07FFE6
00000F
00001F
00003F
00003F
00003F
00003F
00003F
00003F
00003F
00003F
00001F
00000F
000007
000003
000001
ENDCHAR
STARTCHAR five
ENCODING 53
SWIDTH 536 0
DWIDTH 30 0
BBX 24 39 0 0
BITMAP
1FFFFC
3FFFFC
DFFFF8
EFFFF0
F7FFE0
FBFFC0
FC0000
FC0000
FC0000
FC0000
FC0000
FC0000
FC0000
FC0000
FC0000
F80000
F7FFE0
4FFFF0
1FFFF8
1FFFF8
0FFFF2
07FFE7
00000F
00001F
00003F
00003F
00003F
00003F
00003F
00003F
FC003F
FC003F
FC001F
F9FFCF
F7FFE7
EFFFF3
DFFFF9
3FFFFC
3FFFFC
ENDCHAR
STARTCHAR six
ENCODING 54
SWIDTH 536 0
DWIDTH 30 0
BBX 24 39 0 0
BITMAP
1FFFFC
3FFFFC
DFFFF9
EFFFF3
F7FFEF
FBFFDF
FC003F
FC003F
FC003F
FC0000
FC0000
FC0000
FC0000
FC0000
FC0000
F80000
F7FFE0
4FFFF0
1FFFF8
1FFFF8
4FFFF2
E7FFE7
F0000F
F8001F
FC003F
FC003F
FC003F
FC003F
FC003F
FC003F
FC003F
FC003F
FC001F
F9FFCF
F7FFE7
EFFFF3
DFFFF9
3FFFFC
3FFFFC
ENDCHAR
STARTCHAR seven
ENCODING 55
SWIDTH 536 0
DWIDTH 30 0
BBX 24 37 0 2
BITMAP
3FFFFC
1FFFFC
CFFFFB
E7FFF7
F3FFEF
F9FFDF
FC003F
FC003F
FC003F
00003F
00003F
00003F
00003F
00003F
00003F
00001F
00000F
000006
000000
000000
000000
000006
00000F
00001F
00003F
00003F
00003F
00003F
00003F
00003F
00003F
00003F
00001F
00000F
000007
000003
000001
ENDCHAR
STARTCHAR eight
ENCODING 56
SWIDTH 536 0
DWIDTH 30 0
BBX 24 39 0 0
BITMAP
1FFFFC
3FFFFC
DFFFF9
EFFFF3
F7FFE7
FBFFCF
FC001F
FC003F
FC003F
FC003F
FC003F
FC003F
FC003F
FC003F
FC001F
F8000F
F7FFE7
4FFFF2
1FFFF8
1FFFF8
4FFFF2
E7FFE7
F0000F
F8001F
FC003F
FC003F
FC003F
FC003F
FC003F
FC003F
FC003F
FC003F
FC001F
F9FFCF
F7FFE7
EFFFF3
DFFFF9
3FFFFC
3FFFFC
ENDCHAR
STARTCHAR nine
ENCODING 57
SWIDTH 536 0
DWIDTH 30 0
BBX 24 39 0 0
BITMAP
1FFFFC
3FFFFC
DFFFF9
EFFFF3
F7FFE7
FBFFCF
FC001F
FC003F
FC003F
FC003F
FC003F
FC003F
FC003F
FC003F
FC001F
F8000F
F7FFE7
4FFFF2
1FFFF8
1FFFF8
0FFFF2
07FFE7
00000F
00001F
00003F
00003F
00003F
00003F
00003F
00003F
FC003F
FC003F
FC001F
F9FFCF
F7FFE7
EFFFF3
DFFFF9
3FFFFC
3FFFFC
ENDCHAR
STARTCHAR colon
ENCODING 58
SWIDTH 202 0
DWIDTH 11 0
BBX 6 21 0 9
BITMAP
FC
FC
FC
FC
FC
FC
00
00
00
00
00
00
00
00
00
FC
FC
FC
FC
FC
FC
ENDCHAR
STARTCHAR semicolon
ENCODING 59
SWIDTH 202 0
DWIDTH 11 0
BBX 6 28 0 3
BITMAP
FC
FC
FC
FC
FC
FC
00
00
00
00
00
00
00
00
00
00
FC
FC
FC
FC
FC
FC
FC
FC
FC
FC
FC
FC
ENDCHAR
STARTCHAR less
ENCODING 60
SWIDTH 536 0
DWIDTH 30 0
BBX 16 24 4 8
BITMAP
001F
003F
007F
00FF
01FF
03FE
07FC
0FF8
1FF0
3FE0
7FC0
FF80
FF80
7FC0
3FE0
1FF0
0FF8
07F8
03FC
01FE
00FF
007F
003F
001F
ENDCHAR
STARTCHAR equal
ENCODING 61
SWIDTH 536 0
DWIDTH 30 0
BBX 24 17 0 11
BITMAP
3FFFF8
7FFFFC
FFFFFF
7FFFFE
3FFFFC
1FFFF8
000000
000000
000000
000000
000000
1FFFF8
3FFFFC
7FFFFE
FFFFFF
7FFFFC
3FFFF8
ENDCHAR
STARTCHAR greater
ENCODING 62
SWIDTH 536 0
DWIDTH 30 0
BBX 16 24 4 8
BITMAP
F000
FC00
FE00
FF00
FF80
7FC0
3FE0
1FF0
0FF8
07FC
03FE
01FF
01FE
03FC
07F8
0FF0
1FE0
3FC0
7FC0
FF00
FE00
FC00
F800
F000
ENDCHAR
STARTCHAR question
ENCODING 63
SWIDTH 536 0
DWIDTH 30 0
BBX 24 39 0 0
BITMAP
1FFFFC
3FFFFC
DFFFF9
EFFFF3
F7FFE7
FBFFCF
FC001F
FC003F
FC003F
00003F
00003F
00003F
00003F
00003F
00001F
00000F
07FFE7
0FFFF2
1FFFF8
1FFFF8
0FFFF0
07FFE0
000000
000000
000000
000000
000000
000000
000000
000000
000000
000000
000000
01FFC0
07FFE0
0FFFF0
1FFFF8
3FFFFC
3FFFFC
ENDCHAR
STARTCHAR at
ENCODING 64
SWIDTH 985 0
DWIDTH 55 0
BBX 48 50 3 -11
BITMAP
00000FFC0000
0000780FC000
0003C001F000
000F00003C00
003C00001F00
007800000F80
00F0000003C0
01E0000001E0
03C0000001F0
0780000000F8
0F0000000078
0F001FE0007C
1E007878003C
1E00701C003E
3C00601E001E
3C00600E001F
7C00400F001F
7800000F001F
7800001F001F
F800003F000F
F80001EF000F
F8001F8F000F
F000780F000F
F000F00F000F
F001E00F000F
F001C00F001F
F003C00F001F
F003C00F001F
F803C00F001E
F803C00F003E
F803C00F003C
7803C00F0038
7803C00F0078
7C01E00F00F0
3C01E01F01E0
3C00F01F0380
3E007C3F8F00
1E001FF1F800
0F0007C00000
0F8000000000
078000000000
03C000000000
01E000000000
00F000000080
007800000180
003E00000780
000F00001E00
0003C0007800
0000F803E000
00001FFE0000
ENDCHAR
STARTCHAR A
ENCODING 65
SWIDTH 536 0
DWIDTH 30 0
BBX 24 37 0 2
BITMAP
1FFFFC
3FFFFC
DFFFF9
EFFFF3
F7FFE7
FBFFCF
FC001F
FC003F
FC003F
FC003F
FC003F
FC003F
FC003F
FC003F
FC001F
F8000F
F7FFE7
4FFFF2
1FFFF8
1FFFF8
4FFFF2
E7FFE7
F0000F
F8001F
FC003F
FC003F
FC003F
FC003F
FC003F
FC003F
FC003F
FC003F
F8001F
F0000F
E00007
C00003
400001
ENDCHAR
STARTCHAR B
ENCODING 66
SWIDTH 536 0
DWIDTH 30 0
BBX 24 39 0 0
BITMAP
1FFFFC
3FFFFC
DFFFF9
EFFFF3
F7FFE7
FBFFCF
FC001F
FC003F
FC003F
FC003F
FC003F
FC003F
FC003F
FC003F
FC001F
F8000F
F7FFE7
4FFFF2
1FFFF8
1FFFF8
4FFFF2
E7FFE7
F0000F
F8001F
FC003F
FC003F
FC003F
FC003F
FC003F
FC003F
FC003F
FC003F
FC001F
F9FFCF
F7FFE7
EFFFF3
DFFFF9
3FFFFC
3FFFFC
ENDCHAR
STARTCHAR C
ENCODING 67
SWIDTH 536 0
DWIDTH 30 0
BBX 22 39 0 0
BITMAP
1FFFFC
3FFFFC
DFFFF8
EFFFF0
F7FFE0
FBFFC0
FC0000
FC0000
FC0000
FC0000
FC0000
FC0000
FC0000
FC0000
FC0000
F80000
F00000
600000
000000
000000
000000
600000
F00000
F80000
FC0000
FC0000
FC0000
FC0000
FC0000
FC0000
FC0000
FC0000
FC0000
F9FFC0
F7FFE0
EFFFF0
DFFFF8
3FFFFC
3FFFFC
ENDCHAR
STARTCHAR D
ENCODING 68
SWIDTH 536 0
DWIDTH 30 0
BBX 24 39 0 0
BITMAP
1FFFFC
3FFFFC
DFFFF9
EFFFF3
F7FFE7
FBFFCF
FC001F
FC003F
FC003F
FC003F
FC003F
FC003F
FC003F
FC003F
FC003F
F8001F
F0000F
600006
000000
000000
000000
600006
F0000F
F8001F
FC003F
FC003F
FC003F
FC003F
FC003F
FC003F
FC003F
FC003F
FC001F
F9FFCF
F7FFE7
EFFFF3
DFFFF9
3FFFFC
3FFFFC
ENDCHAR
STARTCHAR E
ENCODING 69
SWIDTH 536 0
DWIDTH 30 0
BBX 22 39 0 0
BITMAP
1FFFFC
3FFFFC
DFFFF8
EFFFF0
F7FFE0
FBFFC0
FC0000
FC0000
FC0000
FC0000
FC0000
FC0000
FC0000
FC0000
FC0000
F80000
F7FFE0
4FFFF0
1FFFF8
1FFFF8
4FFFF0
E7FFE0
F00000
F80000
FC0000
FC0000
FC0000
FC0000
FC0000
FC0000
FC0000
FC0000
FC0000
F9FFC0
F7FFE0
EFFFF0
DFFFF8
3FFFFC
3FFFFC
ENDCHAR
STARTCHAR F
ENCODING 70
SWIDTH 536 0
DWIDTH 30 0
BBX 22 37 0 2
BITMAP
1FFFFC
3FFFFC
DFFFF8
EFFFF0
F7FFE0
FBFFC0
FC0000
FC0000
FC0000
FC0000
FC0000
FC0000
FC0000
FC0000
FC0000
F80000
F7FFE0
4FFFF0
1FFFF8
1FFFF8
4FFFF0
E7FFE0
F00000
F80000
FC0000
FC0000
FC0000
FC0000
FC0000
FC0000
FC0000
FC0000
F80000
F00000
E00000
C00000
400000
ENDCHAR
STARTCHAR G
ENCODING 71
SWIDTH 536 0
DWIDTH 30 0
BBX 24 39 0 0
BITMAP
1FFFFC
3FFFFC
DFFFF8
EFFFF0
F7FFE0
FBFFC0
FC0000
FC0000
FC0000
FC0000
FC0000
FC0000
FC0000
FC0000
FC0000
F80000
F00000
600000
000000
000000
000000
600006
F0000F
F8001F
FC003F
FC003F
FC003F
FC003F
FC003F
FC003F
FC003F
FC003F
FC001F
F9FFCF
F7FFE7
EFFFF3
DFFFF9
3FFFFC
3FFFFC
ENDCHAR
STARTCHAR H
ENCODING 72
SWIDTH 536 0
DWIDTH 30 0
BBX 24 35 0 2
BITMAP
C00003
E00007
F0000F
F8001F
FC003F
FC003F
FC003F
FC003F
FC003F
FC003F
FC003F
FC003F
F8001F
F8000F
E7FFE7
4FFFF2
1FFFF8
1FFFF8
4FFFF2
E7FFE7
F0000F
F8001F
FC003F
FC003F
FC003F
FC003F
FC003F
FC003F
FC003F
FC003F
F8001F
F0000F
E00007
C00003
400001
ENDCHAR
STARTCHAR I
ENCODING 73
SWIDTH 536 0
DWIDTH 30 0
BBX 6 35 18 2
BITMAP
0C
1C
3C
7C
FC
FC
FC
FC
FC
FC
FC
FC
FC
7C
3C
18
00
00
00
18
3C
7C
FC
FC
FC
FC
FC
FC
FC
FC
7C
3C
1C
0C
04
ENDCHAR
STARTCHAR J
ENCODING 74
SWIDTH 536 0
DWIDTH 30 0
BBX 24 37 0 0
BITMAP
000001
000003
000007
00000F
00001F
00003F
00003F
00003F
00003F
00003F
00003F
00003F
00003F
00001F
00000F
000006
000000
000000
000000
600006
F0000F
F8001F
FC003F
FC003F
FC003F
FC003F
FC003F
FC003F
FC003F
FC003F
FC001F
F9FFCF
F7FFE7
EFFFF3
DFFFF9
3FFFFC
3FFFFC
ENDCHAR
STARTCHAR K
ENCODING 75
SWIDTH 536 0
DWIDTH 30 0
BBX 24 37 0 0
BITMAP
C00003
E00007
F0000F
F8001F
FC003F
FC003F
FC003F
FC003F
FC003F
FC003F
FC003F
FC003F
F8001F
F8000F
E7FFE7
4FFFF2
1FFFF8
1FFFF8
4FFFF0
E7FFE0
F00000
F80000
FC0000
FC0000
FC0000
FC0000
FC0000
FC0000
FC0000
FC0000
FC0000
F9FFC0
F7FFE0
EFFFF0
DFFFF8
3FFFFC
3FFFFC
ENDCHAR
STARTCHAR L
ENCODING 76
SWIDTH 536 0
DWIDTH 30 0
BBX 24 37 0 0
BITMAP
C00000
E00000
F00000
F80000
FC0000
FC0000
FC0000
FC0000
FC0000
FC0000
FC0000
FC0000
FC0000
F80000
F00000
600000
000000
000000
000000
600006
F0000F
F8001F
FC003F
FC003F
FC003F
FC003F
FC003F
FC003F
FC003F
FC003F
FC001F
F9FFCF
F7FFE7
EFFFF3
DFFFF9
3FFFFC
3FFFFC
ENDCHAR
STARTCHAR M
ENCODING 77
SWIDTH 536 0
DWIDTH 30 0
BBX 24 37 0 2
BITMAP
1FFFFC
3FFFFC
1FFFF8
0FFFF0
07FFE0
03FFC0
000000
000000
000000
000000
000000
000000
000000
000000
000000
000000
07FFE0
0FFFF0
1FFFF8
1FFFF8
4FFFF2
E7FFE7
F0000F
F8001F
FC003F
FC003F
FC003F
FC003F
FC003F
FC003F
FC003F
FC003F
F8001F
F0000F
E00007
C00003
400001
ENDCHAR
STARTCHAR N
ENCODING 78
SWIDTH 536 0
DWIDTH 30 0
BBX 24 37 0 2
BITMAP
1FFFF8
3FFFFC
5FFFF9
CFFFF3
E7FFE7
F3FFCF
F8001F
FC003F
FC003F
FC003F
FC003F
FC003F
FC003F
FC003F
FC003F
F8001F
F0000F
600007
400002
000000
000000
600002
F00007
F8000F
FC001F
FC003F
FC003F
FC003F
FC003F
FC003F
FC003F
FC003F
FC003F
F8001F
F0000F
E00007
C00003
ENDCHAR
STARTCHAR O
ENCODING 79
SWIDTH 536 0
DWIDTH 30 0
BBX 24 39 0 0
BITMAP
1FFFFC
3FFFFC
DFFFF9
EFFFF3
F7FFE7
FBFFCF
FC001F
FC003F
FC003F
FC003F
FC003F
FC003F
FC003F
FC003F
FC003F
F8001F
F0000F
600006
000000
000000
000000
600006
F0000F
F8001F
FC003F
FC003F
FC003F
FC003F
FC003F
FC003F
FC003F
FC003F
FC001F
F9FFCF
F7FFE7
EFFFF3
DFFFF9
3FFFFC
3FFFFC
ENDCHAR
STARTCHAR P
ENCODING 80
SWIDTH 536 0
DWIDTH 30 0
BBX 24 37 0 2
BITMAP
1FFFFC
3FFFFC
DFFFF9
EFFFF3
F7FFE7
FBFFCF
FC001F
FC003F
FC003F
FC003F
FC003F
FC003F
FC003F
FC003F
FC001F
F8000F
F7FFE7
4FFFF2
1FFFF8
1FFFF8
4FFFF0
E7FFE0
F00000
F80000
FC0000
FC0000
FC0000
FC0000
FC0000
FC0000
FC0000
FC0000
F80000
F00000
E00000
C00000
400000
ENDCHAR
STARTCHAR Q
ENCODING 81
SWIDTH 536 0
DWIDTH 30 0
BBX 24 39 0 0
BITMAP
1FFFFC
3FFFFC
DFFFF9
EFFFF3
F7FFE7
FBFFCF
FC001F
FC003F
FC003F
FC003F
FC003F
FC003F
FC003F
FC003F
FC001F
F8000F
F7FFE7
4FFFF2
1FFFF8
1FFFF8
0FFFF0
07FFE0
000000
000000
000000
000000
000000
000000
000000
000000
000000
000000
000000
01FFC0
07FFE0
0FFFF0
1FFFF8
3FFFFC
3FFFFC
ENDCHAR
STARTCHAR R
ENCODING 82
SWIDTH 536 0
DWIDTH 30 0
BBX 22 37 0 2
BITMAP
1FFFF8
3FFFFC
5FFFF8
CFFFF0
E7FFE0
F3FFC0
F80000
FC0000
FC0000
FC0000
FC0000
FC0000
FC0000
FC0000
FC0000
F80000
F00000
600000
400000
000000
000000
600000
F00000
F80000
FC0000
FC0000
FC0000
FC0000
FC0000
FC0000
FC0000
FC0000
FC0000
F80000
F00000
E00000
C00000
ENDCHAR
STARTCHAR S
ENCODING 83
SWIDTH 536 0
DWIDTH 30 0
BBX 24 39 0 0
BITMAP
1FFFFC
3FFFFC
DFFFF8
EFFFF0
F7FFE0
FBFFC0
FC0000
FC0000
FC0000
FC0000
FC0000
FC0000
FC0000
FC0000
FC0000
F80000
F7FFE0
4FFFF0
1FFFF8
1FFFF8
0FFFF2
07FFE7
00000F
00001F
00003F
00003F
00003F
00003F
00003F
00003F
00003F
00003F
00001F
01FFCF
07FFE7
0FFFF3
1FFFF9
3FFFFC
3FFFFC
ENDCHAR
STARTCHAR T
ENCODING 84
SWIDTH 536 0
DWIDTH 30 0
BBX 22 37 2 2
BITMAP
7FFFE0
FFFFF0
7FFFE4
3FFFCC
1FFF9C
0FFF3C
00007C
0000FC
0000FC
0000FC
0000FC
0000FC
0000FC
0000FC
0000FC
00007C
00003C
00001C
000008
000000
000000
000008
00001C
00003C
00007C
0000FC
0000FC
0000FC
0000FC
0000FC
0000FC
0000FC
0000FC
00007C
00003C
00001C
00000C
ENDCHAR
STARTCHAR U
ENCODING 85
SWIDTH 536 0
DWIDTH 30 0
BBX 24 37 0 0
BITMAP
C00001
E00003
F00007
F8000F
FC001F
FC003F
FC003F
FC003F
FC003F
FC003F
FC003F
FC003F
FC003F
F8001F
F0000F
600006
000000
000000
000000
600006
F0000F
F8001F
FC003F
FC003F
FC003F
FC003F
FC003F
FC003F
FC003F
FC003F
FC001F
F9FFCF
F7FFE7
EFFFF3
DFFFF9
3FFFFC
3FFFFC
ENDCHAR
STARTCHAR V
ENCODING 86
SWIDTH 536 0
DWIDTH 30 0
BBX 24 37 0 0
BITMAP
C00003
E00007
F0000F
F8001F
FC003F
FC003F
FC003F
FC003F
FC003F
FC003F
FC003F
FC003F
F8001F
F8000F
E7FFE7
4FFFF2
1FFFF8
1FFFF8
0FFFF0
07FFE0
000000
000000
000000
000000
000000
000000
000000
000000
000000
000000
000000
01FFC0
07FFE0
0FFFF0
1FFFF8
3FFFFC
3FFFFC
ENDCHAR
STARTCHAR W
ENCODING 87
SWIDTH 536 0
DWIDTH 30 0
BBX 24 37 0 0
BITMAP
C00003
E00007
F0000F
F8001F
FC003F
FC003F
FC003F
FC003F
FC003F
FC003F
FC003F
FC003F
F8001F
F8000F
E7FFE7
4FFFF2
1FFFF8
1FFFF8
4FFFF2
E7FFE7
F0000F
F8001F
FC003F
FC003F
FC003F
FC003F
FC003F
FC003F
FC003F
FC003F
FC001F
F9FFCF
F7FFE7
EFFFF3
DFFFF9
3FFFFC
3FFFFC
ENDCHAR
STARTCHAR X
ENCODING 88
SWIDTH 536 0
DWIDTH 30 0
BBX 20 39 2 0
BITMAP
7FFFF0
FFFFF0
7FFFE0
3FFFC0
1FFF80
0FFF00
000000
000000
000000
000000
000000
000000
000000
000000
000000
000000
1FFF80
3FFFC0
7FFFE0
7FFFE0
3FFFC0
1FFF80
000000
000000
000000
000000
000000
000000
000000
000000
000000
000000
000000
07FF00
1FFF80
3FFFC0
7FFFE0
FFFFF0
FFFFF0
ENDCHAR
STARTCHAR Y
ENCODING 89
SWIDTH 536 0
DWIDTH 30 0
BBX 24 37 0 0
BITMAP
C00003
E00007
F0000F
F8001F
FC003F
FC003F
FC003F
FC003F
FC003F
FC003F
FC003F
FC003F
F8001F
F8000F
E7FFE7
4FFFF2
1FFFF8
1FFFF8
0FFFF2
07FFE7
00000F
00001F
00003F
00003F
00003F
00003F
00003F
00003F
00003F
00003F
00001F
01FFCF
07FFE7
0FFFF3
1FFFF9
3FFFFC
3FFFFC
ENDCHAR
STARTCHAR Z
ENCODING 90
SWIDTH 536 0
DWIDTH 30 0
BBX 24 39 0 0
BITMAP
1FFFFC
3FFFFC
1FFFF9
0FFFF3
07FFE7
03FFCF
00001F
00003F
00003F
00003F
00003F
00003F
00003F
00003F
00001F
00000F
07FFE7
0FFFF2
1FFFF8
1FFFF8
4FFFF0
E7FFE0
F00000
F80000
FC0000
FC0000
FC0000
FC0000
FC0000
FC0000
FC0000
FC0000
FC0000
F9FFC0
F7FFE0
EFFFF0
DFFFF8
3FFFFC
3FFFFC
ENDCHAR
STARTCHAR bracketleft
ENCODING 91
SWIDTH 536 0
DWIDTH 30 0
BBX 24 39 0 0
BITMAP
1FFFFC
3FFFFC
DFFFF9
EFFFF3
F7FFE7
FBFFCF
FC001F
FC003F
FC003F
00003F
00003F
00003F
00003F
00003F
00001F
00000F
07FFE7
0FFFF2
1FFFF8
1FFFF8
0FFFF0
07FFE0
000000
000000
000000
000000
000000
000000
000000
000000
000000
000000
000000
01FFC0
07FFE0
0FFFF0
1FFFF8
3FFFFC
3FFFFC
ENDCHAR
STARTCHAR backslash
ENCODING 92
SWIDTH 536 0
DWIDTH 30 0
BBX 24 39 0 0
BITMAP
1FFFFC
3FFFFC
DFFFF9
EFFFF3
F7FFE7
FBFFCF
FC001F
FC003F
FC003F
00003F
00003F
00003F
00003F
00003F
00001F
00000F
07FFE7
0FFFF2
1FFFF8
1FFFF8
0FFFF0
07FFE0
000000
000000
000000
000000
000000
000000
000000
000000
000000
000000
000000
01FFC0
07FFE0
0FFFF0
1FFFF8
3FFFFC
3FFFFC
ENDCHAR
STARTCHAR bracketright
ENCODING 93
SWIDTH 536 0
DWIDTH 30 0
BBX 24 39 0 0
BITMAP
1FFFFC
3FFFFC
DFFFF9
EFFFF3
F7FFE7
FBFFCF
FC001F
FC003F
FC003F
00003F
00003F
00003F
00003F
00003F
00001F
00000F
07FFE7
0FFFF2
1FFFF8
1FFFF8
0FFFF0
07FFE0
000000
000000
000000
000000
000000
000000
000000
000000
000000
000000
000000
01FFC0
07FFE0
0FFFF0
1FFFF8
3FFFFC
3FFFFC
ENDCHAR
STARTCHAR asciicircum
ENCODING 94
SWIDTH 536 0
DWIDTH 30 0
BBX 24 39 0 0
BITMAP
1FFFFC
3FFFFC
DFFFF9
EFFFF3
F7FFE7
FBFFCF
FC001F
FC003F
FC003F
00003F
00003F
00003F
00003F
00003F
00001F
00000F
07FFE7
0FFFF2
1FFFF8
1FFFF8
0FFFF0
07FFE0
000000
000000
000000
000000
000000
000000
000000
000000
000000
000000
000000
01FFC0
07FFE0
0FFFF0
1FFFF8
3FFFFC
3FFFFC
ENDCHAR
STARTCHAR underscore
ENCODING 95
SWIDTH 536 0
DWIDTH 30 0
BBX 20 6 2 0
BITMAP
07FF00
1FFF80
3FFFC0
7FFFE0
FFFFF0
FFFFF0
ENDCHAR
STARTCHAR grave
ENCODING 96
SWIDTH 196 0
DWIDTH 11 0
BBX 6 16 0 21
BITMAP
C0
E0
F0
F8
FC
FC
FC
FC
FC
FC
FC
FC
FC
F8
F0
60
ENDCHAR
STARTCHAR a
ENCODING 97
SWIDTH 536 0
DWIDTH 30 0
BBX 24 39 0 0
BITMAP
1FFFFC
3FFFFC
1FFFF9
0FFFF3
07FFE7
03FFCF
00001F
00003F
00003F
00003F
00003F
00003F
00003F
00003F
00001F
00000F
07FFE7
0FFFF2
1FFFF8
1FFFF8
4FFFF2
E7FFE7
F0000F
F8001F
FC003F
FC003F
FC003F
FC003F
FC003F
FC003F
FC003F
FC003F
FC001F
F9FFCF
F7FFE7
EFFFF3
DFFFF9
3FFFFC
3FFFFC
ENDCHAR
STARTCHAR b
ENCODING 98
SWIDTH 536 0
DWIDTH 30 0
BBX 24 37 0 0
BITMAP
C00000
E00000
F00000
F80000
FC0000
FC0000
FC0000
FC0000
FC0000
FC0000
FC0000
FC0000
F80000
F80000
E7FFE0
4FFFF0
1FFFF8
1FFFF8
4FFFF2
E7FFE7
F0000F
F8001F
FC003F
FC003F
FC003F
FC003F
FC003F
FC003F
FC003F
FC003F
FC001F
F9FFCF
F7FFE7
EFFFF3
DFFFF9
3FFFFC
3FFFFC
ENDCHAR
STARTCHAR c
ENCODING 99
SWIDTH 536 0
DWIDTH 30 0
BBX 22 23 0 0
BITMAP
07FFE0
0FFFF0
1FFFF8
1FFFF8
4FFFF0
E7FFE0
F00000
F80000
FC0000
FC0000
FC0000
FC0000
FC0000
FC0000
FC0000
FC0000
FC0000
F9FFC0
F7FFE0
EFFFF0
DFFFF8
3FFFFC
3FFFFC
ENDCHAR
STARTCHAR d
ENCODING 100
SWIDTH 536 0
DWIDTH 30 0
BBX 24 37 0 0
BITMAP
000003
000007
00000F
00001F
00003F
00003F
00003F
00003F
00003F
00003F
00003F
00003F
00001F
00000F
07FFE7
0FFFF2
1FFFF8
1FFFF8
4FFFF2
E7FFE7
F0000F
F8001F
FC003F
FC003F
FC003F
FC003F
FC003F
FC003F
FC003F
FC003F
FC001F
F9FFCF
F7FFE7
EFFFF3
DFFFF9
3FFFFC
3FFFFC
ENDCHAR
STARTCHAR e
ENCODING 101
SWIDTH 536 0
DWIDTH 30 0
BBX 24 39 0 0
BITMAP
1FFFFC
3FFFFC
DFFFF9
EFFFF3
F7FFE7
FBFFCF
FC001F
FC003F
FC003F
FC003F
FC003F
FC003F
FC003F
FC003F
FC001F
F8000F
F7FFE7
4FFFF2
1FFFF8
1FFFF8
4FFFF0
E7FFE0
F00000
F80000
FC0000
FC0000
FC0000
FC0000
FC0000
FC0000
FC0000
FC0000
FC0000
F9FFC0
F7FFE0
EFFFF0
DFFFF8
3FFFFC
3FFFFC
ENDCHAR
STARTCHAR f
ENCODING 102
SWIDTH 536 0
DWIDTH 30 0
BBX 22 39 0 0
BITMAP
1FFFFC
3FFFFC
DFFFF8
EFFFF0
F7FFE0
FBFFC0
FC0000
FC0000
FC0000
FC0000
FC0000
FC0000
FC0000
FC0000
FC0000
F80000
F7FFE0
4FFFF0
1FFFF8
1FFFF8
4FFFF0
E7FFE0
F00000
F80000
FC0000
FC0000
FC0000
FC0000
FC0000
FC0000
FC0000
FC0000
FC0000
F9FFC0
F7FFE0
EFFFF0
DFFFF8
3FFFFC
3FFFFC
ENDCHAR
STARTCHAR g
ENCODING 103
SWIDTH 536 0
DWIDTH 30 0
BBX 24 39 0 0
BITMAP
1FFFFC
3FFFFC
DFFFF9
EFFFF3
F7FFE7
FBFFCF
FC001F
FC003F
FC003F
FC003F
FC003F
FC003F
FC003F
FC003F
FC001F
F8000F
F7FFE7
4FFFF2
1FFFF8
1FFFF8
0FFFF2
07FFE7
00000F
00001F
00003F
00003F
00003F
00003F
00003F
00003F
00003F
00003F
00001F
01FFCF
07FFE7
0FFFF3
1FFFF9
3FFFFC
3FFFFC
ENDCHAR
STARTCHAR h
ENCODING 104
SWIDTH 536 0
DWIDTH 30 0
BBX 24 35 0 2
BITMAP
C00000
E00000
F00000
F80000
FC0000
FC0000
FC0000
FC0000
FC0000
FC0000
FC0000
FC0000
F80000
F80000
E7FFE0
4FFFF0
1FFFF8
1FFFF8
4FFFF2
E7FFE7
F0000F
F8001F
FC003F
FC003F
FC003F
FC003F
FC003F
FC003F
FC003F
FC003F
F8001F
F0000F
E00007
C00003
400001
ENDCHAR
STARTCHAR i
ENCODING 105
SWIDTH 536 0
DWIDTH 30 0
BBX 6 16 18 2
BITMAP
18
3C
7C
FC
FC
FC
FC
FC
FC
FC
FC
7C
3C
1C
0C
04
ENDCHAR
STARTCHAR j
ENCODING 106
SWIDTH 536 0
DWIDTH 30 0
BBX 22 37 2 0
BITMAP
000004
00000C
00001C
00003C
00007C
0000FC
0000FC
0000FC
0000FC
0000FC
0000FC
0000FC
0000FC
00007C
00003C
000018
000000
000000
000000
000018
00003C
00007C
0000FC
0000FC
0000FC
0000FC
0000FC
0000FC
0000FC
0000FC
00007C
07FF3C
1FFF9C
3FFFCC
7FFFE4
FFFFF0
FFFFF0
ENDCHAR
STARTCHAR k
ENCODING 107
SWIDTH 536 0
DWIDTH 30 0
BBX 24 37 0 2
BITMAP
1FFFFC
3FFFFC
DFFFF8
EFFFF0
F7FFE0
FBFFC0
FC0000
FC0000
FC0000
FC0000
FC0000
FC0000
FC0000
FC0000
FC0000
F80000
F7FFE0
4FFFF0
1FFFF8
1FFFF8
4FFFF2
E7FFE7
F0000F
F8001F
FC003F
FC003F
FC003F
FC003F
FC003F
FC003F
FC003F
FC003F
F8001F
F0000F
E00007
C00003
400001
ENDCHAR
STARTCHAR l
ENCODING 108
SWIDTH 536 0
DWIDTH 30 0
BBX 22 37 0 0
BITMAP
C00000
E00000
F00000
F80000
FC0000
FC0000
FC0000
FC0000
FC0000
FC0000
FC0000
FC0000
FC0000
F80000
F00000
600000
000000
000000
000000
600000
F00000
F80000
FC0000
FC0000
FC0000
FC0000
FC0000
FC0000
FC0000
FC0000
FC0000
F9FFC0
F7FFE0
EFFFF0
DFFFF8
3FFFFC
3FFFFC
ENDCHAR
STARTCHAR m
ENCODING 109
SWIDTH 536 0
DWIDTH 30 0
BBX 24 37 0 2
BITMAP
1FFFFC
3FFFFC
1FFFF8
0FFFF0
07FFE0
03FFC0
000000
000000
000000
000000
000000
000000
000000
000000
000000
000000
07FFE0
0FFFF0
1FFFF8
1FFFF8
4FFFF2
E7FFE7
F0000F
F8001F
FC003F
FC003F
FC003F
FC003F
FC003F
FC003F
FC003F
FC003F
F8001F
F0000F
E00007
C00003
400001
ENDCHAR
STARTCHAR n
ENCODING 110
SWIDTH 536 0
DWIDTH 30 0
BBX 24 21 0 2
BITMAP
07FFE0
0FFFF0
1FFFF8
1FFFF8
4FFFF2
E7FFE7
F0000F
F8001F
FC003F
FC003F
FC003F
FC003F
FC003F
FC003F
FC003F
FC003F
F8001F
F0000F
E00007
C00003
400001
ENDCHAR
STARTCHAR o
ENCODING 111
SWIDTH 536 0
DWIDTH 30 0
BBX 24 23 0 0
BITMAP
07FFE0
0FFFF0
1FFFF8
1FFFF8
4FFFF2
E7FFE7
F0000F
F8001F
FC003F
FC003F
FC003F
FC003F
FC003F
FC003F
FC003F
FC003F
FC001F
F9FFCF
F7FFE7
EFFFF3
DFFFF9
3FFFFC
3FFFFC
ENDCHAR
STARTCHAR p
ENCODING 112
SWIDTH 536 0
DWIDTH 30 0
BBX 24 37 0 2
BITMAP
1FFFFC
3FFFFC
DFFFF9
EFFFF3
F7FFE7
FBFFCF
FC001F
FC003F
FC003F
FC003F
FC003F
FC003F
FC003F
FC003F
FC001F
F8000F
F7FFE7
4FFFF2
1FFFF8
1FFFF8
4FFFF0
E7FFE0
F00000
F80000
FC0000
FC0000
FC0000
FC0000
FC0000
FC0000
FC0000
FC0000
F80000
F00000
E00000
C00000
400000
ENDCHAR
STARTCHAR q
ENCODING 113
SWIDTH 536 0
DWIDTH 30 0
BBX 24 37 0 2
BITMAP
1FFFFC
3FFFFC
DFFFF9
EFFFF3
F7FFE7
FBFFCF
FC001F
FC003F
FC003F
FC003F
FC003F
FC003F
FC003F
FC003F
FC001F
F8000F
F7FFE7
4FFFF2
1FFFF8
1FFFF8
0FFFF2
07FFE7
00000F
00001F
00003F
00003F
00003F
00003F
00003F
00003F
00003F
00003F
00001F
00000F
000007
000003
000001
ENDCHAR
STARTCHAR r
ENCODING 114
SWIDTH 536 0
DWIDTH 30 0
BBX 21 21 0 2
BITMAP
07FFE0
0FFFF0
1FFFF8
1FFFF8
4FFFF0
E7FFE0
F00000
F80000
FC0000
FC0000
FC0000
FC0000
FC0000
FC0000
FC0000
FC0000
F80000
F00000
E00000
C00000
400000
ENDCHAR
STARTCHAR s
ENCODING 115
SWIDTH 536 0
DWIDTH 30 0
BBX 24 35 0 2
BITMAP
C00000
E00000
F00000
F80000
FC0000
FC0000
FC0000
FC0000
FC0000
FC0000
FC0000
FC0000
F80000
F80000
E7FFE0
4FFFF0
1FFFF8
1FFFF8
0FFFF2
07FFE7
00000F
00001F
00003F
00003F
00003F
00003F
00003F
00003F
00003F
00003F
00001F
00000F
000007
000003
000001
ENDCHAR
STARTCHAR t
ENCODING 116
SWIDTH 536 0
DWIDTH 30 0
BBX 22 37 0 0
BITMAP
C00000
E00000
F00000
F80000
FC0000
FC0000
FC0000
FC0000
FC0000
FC0000
FC0000
FC0000
F80000
F80000
E7FFE0
4FFFF0
1FFFF8
1FFFF8
4FFFF0
E7FFE0
F00000
F80000
FC0000
FC0000
FC0000
FC0000
FC0000
FC0000
FC0000
FC0000
FC0000
F9FFC0
F7FFE0
EFFFF0
DFFFF8
3FFFFC
3FFFFC
ENDCHAR
STARTCHAR u
ENCODING 117
SWIDTH 536 0
DWIDTH 30 0
BBX 24 18 0 0
BITMAP
600006
F0000F
F8001F
FC003F
FC003F
FC003F
FC003F
FC003F
FC003F
FC003F
FC003F
FC001F
F9FFCF
F7FFE7
EFFFF3
DFFFF9
3FFFFC
3FFFFC
ENDCHAR
STARTCHAR v
ENCODING 118
SWIDTH 536 0
DWIDTH 30 0
BBX 24 37 0 0
BITMAP
C00001
E00003
F00007
F8000F
FC001F
FC003F
FC003F
FC003F
FC003F
FC003F
FC003F
FC003F
FC003F
F8001F
F0000F
600006
000000
000000
000000
000000
000000
000000
000000
000000
000000
000000
000000
000000
000000
000000
000000
01FFC0
07FFE0
0FFFF0
1FFFF8
3FFFFC
3FFFFC
ENDCHAR
STARTCHAR w
ENCODING 119
SWIDTH 536 0
DWIDTH 30 0
BBX 24 37 0 0
BITMAP
C00003
E00007
F0000F
F8001F
FC003F
FC003F
FC003F
FC003F
FC003F
FC003F
FC003F
FC003F
F8001F
F8000F
E7FFE7
4FFFF2
1FFFF8
1FFFF8
4FFFF2
E7FFE7
F0000F
F8001F
FC003F
FC003F
FC003F
FC003F
FC003F
FC003F
FC003F
FC003F
FC001F
F9FFCF
F7FFE7
EFFFF3
DFFFF9
3FFFFC
3FFFFC
ENDCHAR
STARTCHAR x
ENCODING 120
SWIDTH 536 0
DWIDTH 30 0
BBX 20 39 2 0
BITMAP
7FFFF0
FFFFF0
7FFFE0
3FFFC0
1FFF80
0FFF00
000000
000000
000000
000000
000000
000000
000000
000000
000000
000000
1FFF80
3FFFC0
7FFFE0
7FFFE0
3FFFC0
1FFF80
000000
000000
000000
000000
000000
000000
000000
000000
000000
000000
000000
07FF00
1FFF80
3FFFC0
7FFFE0
FFFFF0
FFFFF0
ENDCHAR
STARTCHAR y
ENCODING 121
SWIDTH 536 0
DWIDTH 30 0
BBX 24 37 0 0
BITMAP
C00003
E00007
F0000F
F8001F
FC003F
FC003F
FC003F
FC003F
FC003F
FC003F
FC003F
FC003F
F8001F
F8000F
E7FFE7
4FFFF2
1FFFF8
1FFFF8
0FFFF2
07FFE7
00000F
00001F
00003F
00003F
00003F
00003F
00003F
00003F
00003F
00003F
00001F
01FFCF
07FFE7
0FFFF3
1FFFF9
3FFFFC
3FFFFC
ENDCHAR
STARTCHAR z
ENCODING 122
SWIDTH 536 0
DWIDTH 30 0
BBX 24 39 0 0
BITMAP
1FFFFC
3FFFFC
1FFFF9
0FFFF3
07FFE7
03FFCF
00001F
00003F
00003F
00003F
00003F
00003F
00003F
00003F
00001F
00000F
07FFE7
0FFFF2
1FFFF8
1FFFF8
4FFFF0
E7FFE0
F00000
F80000
FC0000
FC0000
FC0000
FC0000
FC0000
FC0000
FC0000
FC0000
FC0000
F9FFC0
F7FFE0
EFFFF0
DFFFF8
3FFFFC
3FFFFC
ENDCHAR
STARTCHAR braceleft
ENCODING 123
SWIDTH 536 0
DWIDTH 30 0
BBX 24 39 0 0
BITMAP
1FFFFC
3FFFFC
DFFFF9
EFFFF3
F7FFE7
FBFFCF
FC001F
FC003F
FC003F
00003F
00003F
00003F
00003F
00003F
00001F
00000F
07FFE7
0FFFF2
1FFFF8
1FFFF8
0FFFF0
07FFE0
000000
000000
000000
000000
000000
000000
000000
000000
000000
000000
000000
01FFC0
07FFE0
0FFFF0
1FFFF8
3FFFFC
3FFFFC
ENDCHAR
STARTCHAR bar
ENCODING 124
SWIDTH 536 0
DWIDTH 30 0
BBX 24 39 0 0
BITMAP
1FFFFC
3FFFFC
DFFFF9
EFFFF3
F7FFE7
FBFFCF
FC001F
FC003F
FC003F
00003F
00003F
00003F
00003F
00003F
00001F
00000F
07FFE7
0FFFF2
1FFFF8
1FFFF8
0FFFF0
07FFE0
000000
000000
000000
000000
000000
000000
000000
000000
000000
000000
000000
01FFC0
07FFE0
0FFFF0
1FFFF8
3FFFFC
3FFFFC
ENDCHAR
STARTCHAR braceright
ENCODING 125
SWIDTH 536 0
DWIDTH 30 0
BBX 24 39 0 0
BITMAP
1FFFFC
3FFFFC
DFFFF9
EFFFF3
F7FFE7
FBFFCF
FC001F
FC003F
FC003F
00003F
00003F
00003F
00003F
00003F
00001F
00000F
07FFE7
0FFFF2
1FFFF8
1FFFF8
0FFFF0
07FFE0
000000
000000
000000
000000
000000
000000
000000
000000
000000
000000
000000
01FFC0
07FFE0
0FFFF0
1FFFF8
3FFFFC
3FFFFC
ENDCHAR
STARTCHAR asciitilde
ENCODING 126
SWIDTH 536 0
DWIDTH 30 0
BBX 24 39 0 0
BITMAP
1FFFFC
3FFFFC
DFFFF9
EFFFF3
F7FFE7
FBFFCF
FC001F
FC003F
FC003F
00003F
00003F
00003F
00003F
00003F
00001F
00000F
07FFE7
0FFFF2
1FFFF8
1FFFF8
0FFFF0
07FFE0
000000
000000
000000
000000
000000
000000
000000
000000
000000
000000
000000
01FFC0
07FFE0
0FFFF0
1FFFF8
3FFFFC
3FFFFC
ENDCHAR
STARTCHAR space.dup2
ENCODING 160
SWIDTH 248 0
DWIDTH 14 0
BBX 1 1 0 0
BITMAP
00
ENDCHAR
STARTCHAR exclamdown
ENCODING 161
SWIDTH 536 0
DWIDTH 30 0
BBX 24 39 0 0
BITMAP
1FFFFC
3FFFFC
DFFFF9
EFFFF3
F7FFE7
FBFFCF
FC001F
FC003F
FC003F
00003F
00003F
00003F
00003F
00003F
00001F
00000F
07FFE7
0FFFF2
1FFFF8
1FFFF8
0FFFF0
07FFE0
000000
000000
000000
000000
000000
000000
000000
000000
000000
000000
000000
01FFC0
07FFE0
0FFFF0
1FFFF8
3FFFFC
3FFFFC
ENDCHAR
STARTCHAR cent
ENCODING 162
SWIDTH 536 0
DWIDTH 30 0
BBX 24 39 0 0
BITMAP
1FFFFC
3FFFFC
DFFFF9
EFFFF3
F7FFE7
FBFFCF
FC001F
FC003F
FC003F
00003F
00003F
00003F
00003F
00003F
00001F
00000F
07FFE7
0FFFF2
1FFFF8
1FFFF8
0FFFF0
07FFE0
000000
000000
000000
000000
000000
000000
000000
000000
000000
000000
000000
01FFC0
07FFE0
0FFFF0
1FFFF8
3FFFFC
3FFFFC
ENDCHAR
STARTCHAR sterling
ENCODING 163
SWIDTH 536 0
DWIDTH 30 0
BBX 24 39 0 0
BITMAP
1FFFFC
3FFFFC
DFFFF9
EFFFF3
F7FFE7
FBFFCF
FC001F
FC003F
FC003F
00003F
00003F
00003F
00003F
00003F
00001F
00000F
07FFE7
0FFFF2
1FFFF8
1FFFF8
0FFFF0
07FFE0
000000
000000
000000
000000
000000
000000
000000
000000
000000
000000
000000
01FFC0
07FFE0
0FFFF0
1FFFF8
3FFFFC
3FFFFC
ENDCHAR
STARTCHAR currency
ENCODING 164
SWIDTH 536 0
DWIDTH 30 0
BBX 24 39 0 0
BITMAP
1FFFFC
3FFFFC
DFFFF9
EFFFF3
F7FFE7
FBFFCF
FC001F
FC003F
FC003F
00003F
00003F
00003F
00003F
00003F
00001F
00000F
07FFE7
0FFFF2
1FFFF8
1FFFF8
0FFFF0
07FFE0
000000
000000
000000
000000
000000
000000
000000
000000
000000
000000
000000
01FFC0
07FFE0
0FFFF0
1FFFF8
3FFFFC
3FFFFC
ENDCHAR
STARTCHAR yen
ENCODING 165
SWIDTH 536 0
DWIDTH 30 0
BBX 24 39 0 0
BITMAP
1FFFFC
3FFFFC
DFFFF9
EFFFF3
F7FFE7
FBFFCF
FC001F
FC003F
FC003F
00003F
00003F
00003F
00003F
00003F
00001F
00000F
07FFE7
0FFFF2
1FFFF8
1FFFF8
0FFFF0
07FFE0
000000
000000
000000
000000
000000
000000
000000
000000
000000
000000
000000
01FFC0
07FFE0
0FFFF0
1FFFF8
3FFFFC
3FFFFC
ENDCHAR
STARTCHAR brokenbar
ENCODING 166
SWIDTH 536 0
DWIDTH 30 0
BBX 24 39 0 0
BITMAP
1FFFFC
3FFFFC
DFFFF9
EFFFF3
F7FFE7
FBFFCF
FC001F
FC003F
FC003F
00003F
00003F
00003F
00003F
00003F
00001F
00000F
07FFE7
0FFFF2
1FFFF8
1FFFF8
0FFFF0
07FFE0
000000
000000
000000
000000
000000
000000
000000
000000
000000
000000
000000
01FFC0
07FFE0
0FFFF0
1FFFF8
3FFFFC
3FFFFC
ENDCHAR
STARTCHAR section
ENCODING 167
SWIDTH 536 0
DWIDTH 30 0
BBX 24 39 0 0
BITMAP
1FFFFC
3FFFFC
DFFFF9
EFFFF3
F7FFE7
FBFFCF
FC001F
FC003F
FC003F
00003F
00003F
00003F
00003F
00003F
00001F
00000F
07FFE7
0FFFF2
1FFFF8
1FFFF8
0FFFF0
07FFE0
000000
000000
000000
000000
000000
000000
000000
000000
000000
000000
000000
01FFC0
07FFE0
0FFFF0
1FFFF8
3FFFFC
3FFFFC
ENDCHAR
STARTCHAR dieresis
ENCODING 168
SWIDTH 536 0
DWIDTH 30 0
BBX 24 39 0 0
BITMAP
1FFFFC
3FFFFC
DFFFF9
EFFFF3
F7FFE7
FBFFCF
FC001F
FC003F
FC003F
00003F
00003F
00003F
00003F
00003F
00001F
00000F
07FFE7
0FFFF2
1FFFF8
1FFFF8
0FFFF0
07FFE0
000000
000000
000000
000000
000000
000000
000000
000000
000000
000000
000000
01FFC0
07FFE0
0FFFF0
1FFFF8
3FFFFC
3FFFFC
ENDCHAR
STARTCHAR copyright
ENCODING 169
SWIDTH 536 0
DWIDTH 30 0
BBX 24 39 0 0
BITMAP
1FFFFC
3FFFFC
DFFFF9
EFFFF3
F7FFE7
FBFFCF
FC001F
FC003F
FC003F
00003F
00003F
00003F
00003F
00003F
00001F
00000F
07FFE7
0FFFF2
1FFFF8
1FFFF8
0FFFF0
07FFE0
000000
000000
000000
000000
000000
000000
000000
000000
000000
000000
000000
01FFC0
07FFE0
0FFFF0
1FFFF8
3FFFFC
3FFFFC
ENDCHAR
STARTCHAR ordfeminine
ENCODING 170
SWIDTH 536 0
DWIDTH 30 0
BBX 24 39 0 0
BITMAP
1FFFFC
3FFFFC
5FFFF9
CFFFF3
E7FFE7
F3FFCF
F8001F
FC003F
FC003F
00003F
00003F
00003F
00003F
00003F
00001F
00000F
07FFE7
0FFFF2
1FFFF8
1FFFF8
0FFFF0
07FFE0
000000
000000
000000
000000
000000
000000
000000
000000
000000
000000
000000
03FFC0
07FFE0
0FFFF0
1FFFF8
3FFFFC
1FFFFC
ENDCHAR
STARTCHAR guillemotleft
ENCODING 171
SWIDTH 536 0
DWIDTH 30 0
BBX 24 39 0 0
BITMAP
1FFFFC
3FFFFC
DFFFF9
EFFFF3
F7FFE7
FBFFCF
FC001F
FC003F
FC003F
00003F
00003F
00003F
00003F
00003F
00001F
00000F
07FFE7
0FFFF2
1FFFF8
1FFFF8
0FFFF0
07FFE0
000000
000000
000000
000000
000000
000000
000000
000000
000000
000000
000000
01FFC0
07FFE0
0FFFF0
1FFFF8
3FFFFC
3FFFFC
ENDCHAR
STARTCHAR logicalnot
ENCODING 172
SWIDTH 536 0
DWIDTH 30 0
BBX 24 39 0 0
BITMAP
1FFFFC
3FFFFC
DFFFF9
EFFFF3
F7FFE7
FBFFCF
FC001F
FC003F
FC003F
00003F
00003F
00003F
00003F
00003F
00001F
00000F
07FFE7
0FFFF2
1FFFF8
1FFFF8
0FFFF0
07FFE0
000000
000000
000000
000000
000000
000000
000000
000000
000000
000000
000000
01FFC0
07FFE0
0FFFF0
1FFFF8
3FFFFC
3FFFFC
ENDCHAR
STARTCHAR hyphen.dup3
ENCODING 173
SWIDTH 488 0
DWIDTH 27 0
BBX 18 6 3 17
BITMAP
3FFF00
7FFF80
FFFFC0
FFFFC0
7FFF80
3FFF00
ENDCHAR
STARTCHAR registered
ENCODING 174
SWIDTH 536 0
DWIDTH 30 0
BBX 24 39 0 0
BITMAP
1FFFFC
3FFFFC
DFFFF9
EFFFF3
F7FFE7
FBFFCF
FC001F
FC003F
FC003F
00003F
00003F
00003F
00003F
00003F
00001F
00000F
07FFE7
0FFFF2
1FFFF8
1FFFF8
0FFFF0
07FFE0
000000
000000
000000
000000
000000
000000
000000
000000
000000
000000
000000
01FFC0
07FFE0
0FFFF0
1FFFF8
3FFFFC
3FFFFC
ENDCHAR
STARTCHAR macron
ENCODING 175
SWIDTH 536 0
DWIDTH 30 0
BBX 24 39 0 0
BITMAP
1FFFFC
3FFFFC
DFFFF9
EFFFF3
F7FFE7
FBFFCF
FC001F
FC003F
FC003F
00003F
00003F
00003F
00003F
00003F
00001F
00000F
07FFE7
0FFFF2
1FFFF8
1FFFF8
0FFFF0
07FFE0
000000
000000
000000
000000
000000
000000
000000
000000
000000
000000
000000
01FFC0
07FFE0
0FFFF0
1FFFF8
3FFFFC
3FFFFC
ENDCHAR
STARTCHAR degree
ENCODING 176
SWIDTH 536 0
DWIDTH 30 0
BBX 24 22 0 17
BITMAP
1FFFFC
3FFFFC
DFFFF9
EFFFF3
F7FFE7
FBFFCF
FC001F
FC003F
FC003F
FC003F
FC003F
FC003F
FC003F
FC003F
FC001F
F8000F
F7FFE7
4FFFF2
1FFFF8
1FFFF8
0FFFF0
07FFE0
ENDCHAR
STARTCHAR plusminus
ENCODING 177
SWIDTH 536 0
DWIDTH 30 0
BBX 24 39 0 0
BITMAP
1FFFFC
3FFFFC
DFFFF9
EFFFF3
F7FFE7
FBFFCF
FC001F
FC003F
FC003F
00003F
00003F
00003F
00003F
00003F
00001F
00000F
07FFE7
0FFFF2
1FFFF8
1FFFF8
0FFFF0
07FFE0
000000
000000
000000
000000
000000
000000
000000
000000
000000
000000
000000
01FFC0
07FFE0
0FFFF0
1FFFF8
3FFFFC
3FFFFC
ENDCHAR
STARTCHAR uni00B2
ENCODING 178
SWIDTH 536 0
DWIDTH 30 0
BBX 24 39 0 0
BITMAP
1FFFFC
3FFFFC
5FFFF9
CFFFF3
E7FFE7
F3FFCF
F8001F
FC003F
FC003F
00003F
00003F
00003F
00003F
00003F
00001F
00000F
07FFE7
0FFFF2
1FFFF8
1FFFF8
0FFFF0
07FFE0
000000
000000
000000
000000
000000
000000
000000
000000
000000
000000
000000
03FFC0
07FFE0
0FFFF0
1FFFF8
3FFFFC
1FFFFC
ENDCHAR
STARTCHAR uni00B3
ENCODING 179
SWIDTH 536 0
DWIDTH 30 0
BBX 24 39 0 0
BITMAP
1FFFFC
3FFFFC
5FFFF9
CFFFF3
E7FFE7
F3FFCF
F8001F
FC003F
FC003F
00003F
00003F
00003F
00003F
00003F
00001F
00000F
07FFE7
0FFFF2
1FFFF8
1FFFF8
0FFFF0
07FFE0
000000
000000
000000
000000
000000
000000
000000
000000
000000
000000
000000
03FFC0
07FFE0
0FFFF0
1FFFF8
3FFFFC
1FFFFC
ENDCHAR
STARTCHAR acute
ENCODING 180
SWIDTH 536 0
DWIDTH 30 0
BBX 24 39 0 0
BITMAP
1FFFFC
3FFFFC
DFFFF9
EFFFF3
F7FFE7
FBFFCF
FC001F
FC003F
FC003F
00003F
00003F
00003F
00003F
00003F
00001F
00000F
07FFE7
0FFFF2
1FFFF8
1FFFF8
0FFFF0
07FFE0
000000
000000
000000
000000
000000
000000
000000
000000
000000
000000
000000
01FFC0
07FFE0
0FFFF0
1FFFF8
3FFFFC
3FFFFC
ENDCHAR
STARTCHAR mu
ENCODING 181
SWIDTH 536 0
DWIDTH 30 0
BBX 24 39 0 0
BITMAP
1FFFFC
3FFFFC
DFFFF9
EFFFF3
F7FFE7
FBFFCF
FC001F
FC003F
FC003F
00003F
00003F
00003F
00003F
00003F
00001F
00000F
07FFE7
0FFFF2
1FFFF8
1FFFF8
0FFFF0
07FFE0
000000
000000
000000
000000
000000
000000
000000
000000
000000
000000
000000
01FFC0
07FFE0
0FFFF0
1FFFF8
3FFFFC
3FFFFC
ENDCHAR
STARTCHAR paragraph
ENCODING 182
SWIDTH 536 0
DWIDTH 30 0
BBX 24 39 0 0
BITMAP
1FFFFC
3FFFFC
DFFFF9
EFFFF3
F7FFE7
FBFFCF
FC001F
FC003F
FC003F
00003F
00003F
00003F
00003F
00003F
00001F
00000F
07FFE7
0FFFF2
1FFFF8
1FFFF8
0FFFF0
07FFE0
000000
000000
000000
000000
000000
000000
000000
000000
000000
000000
000000
01FFC0
07FFE0
0FFFF0
1FFFF8
3FFFFC
3FFFFC
ENDCHAR
STARTCHAR periodcentered
ENCODING 183
SWIDTH 536 0
DWIDTH 30 0
BBX 24 39 0 0
BITMAP
1FFFFC
3FFFFC
DFFFF9
EFFFF3
F7FFE7
FBFFCF
FC001F
FC003F
FC003F
00003F
00003F
00003F
00003F
00003F
00001F
00000F
07FFE7
0FFFF2
1FFFF8
1FFFF8
0FFFF0
07FFE0
000000
000000
000000
000000
000000
000000
000000
000000
000000
000000
000000
01FFC0
07FFE0
0FFFF0
1FFFF8
3FFFFC
3FFFFC
ENDCHAR
STARTCHAR cedilla
ENCODING 184
SWIDTH 536 0
DWIDTH 30 0
BBX 24 39 0 0
BITMAP
1FFFFC
3FFFFC
DFFFF9
EFFFF3
F7FFE7
FBFFCF
FC001F
FC003F
FC003F
00003F
00003F
00003F
00003F
00003F
00001F
00000F
07FFE7
0FFFF2
1FFFF8
1FFFF8
0FFFF0
07FFE0
000000
000000
000000
000000
000000
000000
000000
000000
000000
000000
000000
01FFC0
07FFE0
0FFFF0
1FFFF8
3FFFFC
3FFFFC
ENDCHAR
STARTCHAR uni00B9
ENCODING 185
SWIDTH 536 0
DWIDTH 30 0
BBX 24 39 0 0
BITMAP
1FFFFC
3FFFFC
5FFFF9
CFFFF3
E7FFE7
F3FFCF
F8001F
FC003F
FC003F
00003F
00003F
00003F
00003F
00003F
00001F
00000F
07FFE7
0FFFF2
1FFFF8
1FFFF8
0FFFF0
07FFE0
000000
000000
000000
000000
000000
000000
000000
000000
000000
000000
000000
03FFC0
07FFE0
0FFFF0
1FFFF8
3FFFFC
1FFFFC
ENDCHAR
STARTCHAR ordmasculine
ENCODING 186
SWIDTH 536 0
DWIDTH 30 0
BBX 24 39 0 0
BITMAP
1FFFFC
3FFFFC
5FFFF9
CFFFF3
E7FFE7
F3FFCF
F8001F
FC003F
FC003F
00003F
00003F
00003F
00003F
00003F
00001F
00000F
07FFE7
0FFFF2
1FFFF8
1FFFF8
0FFFF0
07FFE0
000000
000000
000000
000000
000000
000000
000000
000000
000000
000000
000000
03FFC0
07FFE0
0FFFF0
1FFFF8
3FFFFC
1FFFFC
ENDCHAR
STARTCHAR guillemotright
ENCODING 187
SWIDTH 536 0
DWIDTH 30 0
BBX 24 39 0 0
BITMAP
1FFFFC
3FFFFC
DFFFF9
EFFFF3
F7FFE7
FBFFCF
FC001F
FC003F
FC003F
00003F
00003F
00003F
00003F
00003F
00001F
00000F
07FFE7
0FFFF2
1FFFF8
1FFFF8
0FFFF0
07FFE0
000000
000000
000000
000000
000000
000000
000000
000000
000000
000000
000000
01FFC0
07FFE0
0FFFF0
1FFFF8
3FFFFC
3FFFFC
ENDCHAR
STARTCHAR onequarter
ENCODING 188
SWIDTH 536 0
DWIDTH 30 0
BBX 24 39 0 0
BITMAP
1FFFFC
3FFFFC
DFFFF9
EFFFF3
F7FFE7
FBFFCF
FC001F
FC003F
FC003F
00003F
00003F
00003F
00003F
00003F
00001F
00000F
07FFE7
0FFFF2
1FFFF8
1FFFF8
0FFFF0
07FFE0
000000
000000
000000
000000
000000
000000
000000
000000
000000
000000
000000
01FFC0
07FFE0
0FFFF0
1FFFF8
3FFFFC
3FFFFC
ENDCHAR
STARTCHAR onehalf
ENCODING 189
SWIDTH 536 0
DWIDTH 30 0
BBX 24 39 0 0
BITMAP
1FFFFC
3FFFFC
DFFFF9
EFFFF3
F7FFE7
FBFFCF
FC001F
FC003F
FC003F
00003F
00003F
00003F
00003F
00003F
00001F
00000F
07FFE7
0FFFF2
1FFFF8
1FFFF8
0FFFF0
07FFE0
000000
000000
000000
000000
000000
000000
000000
000000
000000
000000
000000
01FFC0
07FFE0
0FFFF0
1FFFF8
3FFFFC
3FFFFC
ENDCHAR
STARTCHAR threequarters
ENCODING 190
SWIDTH 536 0
DWIDTH 30 0
BBX 24 39 0 0
BITMAP
1FFFFC
3FFFFC
DFFFF9
EFFFF3
F7FFE7
FBFFCF
FC001F
FC003F
FC003F
00003F
00003F
00003F
00003F
00003F
00001F
00000F
07FFE7
0FFFF2
1FFFF8
1FFFF8
0FFFF0
07FFE0
000000
000000
000000
000000
000000
000000
000000
000000
000000
000000
000000
01FFC0
07FFE0
0FFFF0
1FFFF8
3FFFFC
3FFFFC
ENDCHAR
STARTCHAR questiondown
ENCODING 191
SWIDTH 536 0
DWIDTH 30 0
BBX 24 39 0 0
BITMAP
1FFFFC
3FFFFC
DFFFF9
EFFFF3
F7FFE7
FBFFCF
FC001F
FC003F
FC003F
00003F
00003F
00003F
00003F
00003F
00001F
00000F
07FFE7
0FFFF2
1FFFF8
1FFFF8
0FFFF0
07FFE0
000000
000000
000000
000000
000000
000000
000000
000000
000000
000000
000000
01FFC0
07FFE0
0FFFF0
1FFFF8
3FFFFC
3FFFFC
ENDCHAR
STARTCHAR Agrave
ENCODING 192
SWIDTH 536 0
DWIDTH 30 0
BBX 24 39 0 0
BITMAP
1FFFFC
3FFFFC
DFFFF9
EFFFF3
F7FFE7
FBFFCF
FC001F
FC003F
FC003F
00003F
00003F
00003F
00003F
00003F
00001F
00000F
07FFE7
0FFFF2
1FFFF8
1FFFF8
0FFFF0
07FFE0
000000
000000
000000
000000
000000
000000
000000
000000
000000
000000
000000
01FFC0
07FFE0
0FFFF0
1FFFF8
3FFFFC
3FFFFC
ENDCHAR
STARTCHAR Aacute
ENCODING 193
SWIDTH 536 0
DWIDTH 30 0
BBX 24 39 0 0
BITMAP
1FFFFC
3FFFFC
DFFFF9
EFFFF3
F7FFE7
FBFFCF
FC001F
FC003F
FC003F
00003F
00003F
00003F
00003F
00003F
00001F
00000F
07FFE7
0FFFF2
1FFFF8
1FFFF8
0FFFF0
07FFE0
000000
000000
000000
000000
000000
000000
000000
000000
000000
000000
000000
01FFC0
07FFE0
0FFFF0
1FFFF8
3FFFFC
3FFFFC
ENDCHAR
STARTCHAR Acircumflex
ENCODING 194
SWIDTH 536 0
DWIDTH 30 0
BBX 24 39 0 0
BITMAP
1FFFFC
3FFFFC
DFFFF9
EFFFF3
F7FFE7
FBFFCF
FC001F
FC003F
FC003F
00003F
00003F
00003F
00003F
00003F
00001F
00000F
07FFE7
0FFFF2
1FFFF8
1FFFF8
0FFFF0
07FFE0
000000
000000
000000
000000
000000
000000
000000
000000
000000
000000
000000
01FFC0
07FFE0
0FFFF0
1FFFF8
3FFFFC
3FFFFC
ENDCHAR
STARTCHAR Atilde
ENCODING 195
SWIDTH 536 0
DWIDTH 30 0
BBX 24 39 0 0
BITMAP
1FFFFC
3FFFFC
DFFFF9
EFFFF3
F7FFE7
FBFFCF
FC001F
FC003F
FC003F
00003F
00003F
00003F
00003F
00003F
00001F
00000F
07FFE7
0FFFF2
1FFFF8
1FFFF8
0FFFF0
07FFE0
000000
000000
000000
000000
000000
000000
000000
000000
000000
000000
000000
01FFC0
07FFE0
0FFFF0
1FFFF8
3FFFFC
3FFFFC
ENDCHAR
STARTCHAR Adieresis
ENCODING 196
SWIDTH 536 0
DWIDTH 30 0
BBX 24 39 0 0
BITMAP
1FFFFC
3FFFFC
DFFFF9
EFFFF3
F7FFE7
FBFFCF
FC001F
FC003F
FC003F
00003F
00003F
00003F
00003F
00003F
00001F
00000F
07FFE7
0FFFF2
1FFFF8
1FFFF8
0FFFF0
07FFE0
000000
000000
000000
000000
000000
000000
000000
000000
000000
000000
000000
01FFC0
07FFE0
0FFFF0
1FFFF8
3FFFFC
3FFFFC
ENDCHAR
STARTCHAR Aring
ENCODING 197
SWIDTH 536 0
DWIDTH 30 0
BBX 24 39 0 0
BITMAP
1FFFFC
3FFFFC
DFFFF9
EFFFF3
F7FFE7
FBFFCF
FC001F
FC003F
FC003F
00003F
00003F
00003F
00003F
00003F
00001F
00000F
07FFE7
0FFFF2
1FFFF8
1FFFF8
0FFFF0
07FFE0
000000
000000
000000
000000
000000
000000
000000
000000
000000
000000
000000
01FFC0
07FFE0
0FFFF0
1FFFF8
3FFFFC
3FFFFC
ENDCHAR
STARTCHAR AE
ENCODING 198
SWIDTH 536 0
DWIDTH 30 0
BBX 24 39 0 0
BITMAP
1FFFFC
3FFFFC
DFFFF9
EFFFF3
F7FFE7
FBFFCF
FC001F
FC003F
FC003F
00003F
00003F
00003F
00003F
00003F
00001F
00000F
07FFE7
0FFFF2
1FFFF8
1FFFF8
0FFFF0
07FFE0
000000
000000
000000
000000
000000
000000
000000
000000
000000
000000
000000
01FFC0
07FFE0
0FFFF0
1FFFF8
3FFFFC
3FFFFC
ENDCHAR
STARTCHAR Ccedilla
ENCODING 199
SWIDTH 536 0
DWIDTH 30 0
BBX 24 39 0 0
BITMAP
1FFFFC
3FFFFC
DFFFF9
EFFFF3
F7FFE7
FBFFCF
FC001F
FC003F
FC003F
00003F
00003F
00003F
00003F
00003F
00001F
00000F
07FFE7
0FFFF2
1FFFF8
1FFFF8
0FFFF0
07FFE0
000000
000000
000000
000000
000000
000000
000000
000000
000000
000000
000000
01FFC0
07FFE0
0FFFF0
1FFFF8
3FFFFC
3FFFFC
ENDCHAR
STARTCHAR Egrave
ENCODING 200
SWIDTH 536 0
DWIDTH 30 0
BBX 24 39 0 0
BITMAP
1FFFFC
3FFFFC
DFFFF9
EFFFF3
F7FFE7
FBFFCF
FC001F
FC003F
FC003F
00003F
00003F
00003F
00003F
00003F
00001F
00000F
07FFE7
0FFFF2
1FFFF8
1FFFF8
0FFFF0
07FFE0
000000
000000
000000
000000
000000
000000
000000
000000
000000
000000
000000
01FFC0
07FFE0
0FFFF0
1FFFF8
3FFFFC
3FFFFC
ENDCHAR
STARTCHAR Eacute
ENCODING 201
SWIDTH 536 0
DWIDTH 30 0
BBX 24 39 0 0
BITMAP
1FFFFC
3FFFFC
DFFFF9
EFFFF3
F7FFE7
FBFFCF
FC001F
FC003F
FC003F
00003F
00003F
00003F
00003F
00003F
00001F
00000F
07FFE7
0FFFF2
1FFFF8
1FFFF8
0FFFF0
07FFE0
000000
000000
000000
000000
000000
000000
000000
000000
000000
000000
000000
01FFC0
07FFE0
0FFFF0
1FFFF8
3FFFFC
3FFFFC
ENDCHAR
STARTCHAR Ecircumflex
ENCODING 202
SWIDTH 536 0
DWIDTH 30 0
BBX 24 39 0 0
BITMAP
1FFFFC
3FFFFC
DFFFF9
EFFFF3
F7FFE7
FBFFCF
FC001F
FC003F
FC003F
00003F
00003F
00003F
00003F
00003F
00001F
00000F
07FFE7
0FFFF2
1FFFF8
1FFFF8
0FFFF0
07FFE0
000000
000000
000000
000000
000000
000000
000000
000000
000000
000000
000000
01FFC0
07FFE0
0FFFF0
1FFFF8
3FFFFC
3FFFFC
ENDCHAR
STARTCHAR Edieresis
ENCODING 203
SWIDTH 536 0
DWIDTH 30 0
BBX 24 39 0 0
BITMAP
1FFFFC
3FFFFC
DFFFF9
EFFFF3
F7FFE7
FBFFCF
FC001F
FC003F
FC003F
00003F
00003F
00003F
00003F
00003F
00001F
00000F
07FFE7
0FFFF2
1FFFF8
1FFFF8
0FFFF0
07FFE0
000000
000000
000000
000000
000000
000000
000000
000000
000000
000000
000000
01FFC0
07FFE0
0FFFF0
1FFFF8
3FFFFC
3FFFFC
ENDCHAR
STARTCHAR Igrave
ENCODING 204
SWIDTH 536 0
DWIDTH 30 0
BBX 24 39 0 0
BITMAP
1FFFFC
3FFFFC
DFFFF9
EFFFF3
F7FFE7
FBFFCF
FC001F
FC003F
FC003F
00003F
00003F
00003F
00003F
00003F
00001F
00000F
07FFE7
0FFFF2
1FFFF8
1FFFF8
0FFFF0
07FFE0
000000
000000
000000
000000
000000
000000
000000
000000
000000
000000
000000
01FFC0
07FFE0
0FFFF0
1FFFF8
3FFFFC
3FFFFC
ENDCHAR
STARTCHAR Iacute
ENCODING 205
SWIDTH 536 0
DWIDTH 30 0
BBX 24 39 0 0
BITMAP
1FFFFC
3FFFFC
DFFFF9
EFFFF3
F7FFE7
FBFFCF
FC001F
FC003F
FC003F
00003F
00003F
00003F
00003F
00003F
00001F
00000F
07FFE7
0FFFF2
1FFFF8
1FFFF8
0FFFF0
07FFE0
000000
000000
000000
000000
000000
000000
000000
000000
000000
000000
000000
01FFC0
07FFE0
0FFFF0
1FFFF8
3FFFFC
3FFFFC
ENDCHAR
STARTCHAR Icircumflex
ENCODING 206
SWIDTH 536 0
DWIDTH 30 0
BBX 24 39 0 0
BITMAP
1FFFFC
3FFFFC
DFFFF9
EFFFF3
F7FFE7
FBFFCF
FC001F
FC003F
FC003F
00003F
00003F
00003F
00003F
00003F
00001F
00000F
07FFE7
0FFFF2
1FFFF8
1FFFF8
0FFFF0
07FFE0
000000
000000
000000
000000
000000
000000
000000
000000
000000
000000
000000
01FFC0
07FFE0
0FFFF0
1FFFF8
3FFFFC
3FFFFC
ENDCHAR
STARTCHAR Idieresis
ENCODING 207
SWIDTH 536 0
DWIDTH 30 0
BBX 24 39 0 0
BITMAP
1FFFFC
3FFFFC
DFFFF9
EFFFF3
F7FFE7
FBFFCF
FC001F
FC003F
FC003F
00003F
00003F
00003F
00003F
00003F
00001F
00000F
07FFE7
0FFFF2
1FFFF8
1FFFF8
0FFFF0
07FFE0
000000
000000
000000
000000
000000
000000
000000
000000
000000
000000
000000
01FFC0
07FFE0
0FFFF0
1FFFF8
3FFFFC
3FFFFC
ENDCHAR
STARTCHAR Eth
ENCODING 208
SWIDTH 536 0
DWIDTH 30 0
BBX 24 39 0 0
BITMAP
1FFFFC
3FFFFC
DFFFF9
EFFFF3
F7FFE7
FBFFCF
FC001F
FC003F
FC003F
00003F
00003F
00003F
00003F
00003F
00001F
00000F
07FFE7
0FFFF2
1FFFF8
1FFFF8
0FFFF0
07FFE0
000000
000000
000000
000000
000000
000000
000000
000000
000000
000000
000000
01FFC0
07FFE0
0FFFF0
1FFFF8
3FFFFC
3FFFFC
ENDCHAR
STARTCHAR Ntilde
ENCODING 209
SWIDTH 536 0
DWIDTH 30 0
BBX 24 39 0 0
BITMAP
1FFFFC
3FFFFC
DFFFF9
EFFFF3
F7FFE7
FBFFCF
FC001F
FC003F
FC003F
00003F
00003F
00003F
00003F
00003F
00001F
00000F
07FFE7
0FFFF2
1FFFF8
1FFFF8
0FFFF0
07FFE0
000000
000000
000000
000000
000000
000000
000000
000000
000000
000000
000000
01FFC0
07FFE0
0FFFF0
1FFFF8
3FFFFC
3FFFFC
ENDCHAR
STARTCHAR Ograve
ENCODING 210
SWIDTH 536 0
DWIDTH 30 0
BBX 24 39 0 0
BITMAP
1FFFFC
3FFFFC
DFFFF9
EFFFF3
F7FFE7
FBFFCF
FC001F
FC003F
FC003F
00003F
00003F
00003F
00003F
00003F
00001F
00000F
07FFE7
0FFFF2
1FFFF8
1FFFF8
0FFFF0
07FFE0
000000
000000
000000
000000
000000
000000
000000
000000
000000
000000
000000
01FFC0
07FFE0
0FFFF0
1FFFF8
3FFFFC
3FFFFC
ENDCHAR
STARTCHAR Oacute
ENCODING 211
SWIDTH 536 0
DWIDTH 30 0
BBX 24 39 0 0
BITMAP
1FFFFC
3FFFFC
DFFFF9
EFFFF3
F7FFE7
FBFFCF
FC001F
FC003F
FC003F
00003F
00003F
00003F
00003F
00003F
00001F
00000F
07FFE7
0FFFF2
1FFFF8
1FFFF8
0FFFF0
07FFE0
000000
000000
000000
000000
000000
000000
000000
000000
000000
000000
000000
01FFC0
07FFE0
0FFFF0
1FFFF8
3FFFFC
3FFFFC
ENDCHAR
STARTCHAR Ocircumflex
ENCODING 212
SWIDTH 536 0
DWIDTH 30 0
BBX 24 39 0 0
BITMAP
1FFFFC
3FFFFC
DFFFF9
EFFFF3
F7FFE7
FBFFCF
FC001F
FC003F
FC003F
00003F
00003F
00003F
00003F
00003F
00001F
00000F
07FFE7
0FFFF2
1FFFF8
1FFFF8
0FFFF0
07FFE0
000000
000000
000000
000000
000000
000000
000000
000000
000000
000000
000000
01FFC0
07FFE0
0FFFF0
1FFFF8
3FFFFC
3FFFFC
ENDCHAR
STARTCHAR Otilde
ENCODING 213
SWIDTH 536 0
DWIDTH 30 0
BBX 24 39 0 0
BITMAP
1FFFFC
3FFFFC
DFFFF9
EFFFF3
F7FFE7
FBFFCF
FC001F
FC003F
FC003F
00003F
00003F
00003F
00003F
00003F
00001F
00000F
07FFE7
0FFFF2
1FFFF8
1FFFF8
0FFFF0
07FFE0
000000
000000
000000
000000
000000
000000
000000
000000
000000
000000
000000
01FFC0
07FFE0
0FFFF0
1FFFF8
3FFFFC
3FFFFC
ENDCHAR
STARTCHAR Odieresis
ENCODING 214
SWIDTH 536 0
DWIDTH 30 0
BBX 24 39 0 0
BITMAP
1FFFFC
3FFFFC
DFFFF9
EFFFF3
F7FFE7
FBFFCF
FC001F
FC003F
FC003F
00003F
00003F
00003F
00003F
00003F
00001F
00000F
07FFE7
0FFFF2
1FFFF8
1FFFF8
0FFFF0
07FFE0
000000
000000
000000
000000
000000
000000
000000
000000
000000
000000
000000
01FFC0
07FFE0
0FFFF0
1FFFF8
3FFFFC
3FFFFC
ENDCHAR
STARTCHAR multiply
ENCODING 215
SWIDTH 536 0
DWIDTH 30 0
BBX 24 39 0 0
BITMAP
1FFFFC
3FFFFC
DFFFF9
EFFFF3
F7FFE7
FBFFCF
FC001F
FC003F
FC003F
00003F
00003F
00003F
00003F
00003F
00001F
00000F
07FFE7
0FFFF2
1FFFF8
1FFFF8
0FFFF0
07FFE0
000000
000000
000000
000000
000000
000000
000000
000000
000000
000000
000000
01FFC0
07FFE0
0FFFF0
1FFFF8
3FFFFC
3FFFFC
ENDCHAR
STARTCHAR Oslash
ENCODING 216
SWIDTH 536 0
DWIDTH 30 0
BBX 24 39 0 0
BITMAP
1FFFFC
3FFFFC
DFFFF9
EFFFF3
F7FFE7
FBFFCF
FC001F
FC003F
FC003F
00003F
00003F
00003F
00003F
00003F
00001F
00000F
07FFE7
0FFFF2
1FFFF8
1FFFF8
0FFFF0
07FFE0
000000
000000
000000
000000
000000
000000
000000
000000
000000
000000
000000
01FFC0
07FFE0
0FFFF0
1FFFF8
3FFFFC
3FFFFC
ENDCHAR
STARTCHAR Ugrave
ENCODING 217
SWIDTH 536 0
DWIDTH 30 0
BBX 24 39 0 0
BITMAP
1FFFFC
3FFFFC
DFFFF9
EFFFF3
F7FFE7
FBFFCF
FC001F
FC003F
FC003F
00003F
00003F
00003F
00003F
00003F
00001F
00000F
07FFE7
0FFFF2
1FFFF8
1FFFF8
0FFFF0
07FFE0
000000
000000
000000
000000
000000
000000
000000
000000
000000
000000
000000
01FFC0
07FFE0
0FFFF0
1FFFF8
3FFFFC
3FFFFC
ENDCHAR
STARTCHAR Uacute
ENCODING 218
SWIDTH 536 0
DWIDTH 30 0
BBX 24 39 0 0
BITMAP
1FFFFC
3FFFFC
DFFFF9
EFFFF3
F7FFE7
FBFFCF
FC001F
FC003F
FC003F
00003F
00003F
00003F
00003F
00003F
00001F
00000F
07FFE7
0FFFF2
1FFFF8
1FFFF8
0FFFF0
07FFE0
000000
000000
000000
000000
000000
000000
000000
000000
000000
000000
000000
01FFC0
07FFE0
0FFFF0
1FFFF8
3FFFFC
3FFFFC
ENDCHAR
STARTCHAR Ucircumflex
ENCODING 219
SWIDTH 536 0
DWIDTH 30 0
BBX 24 39 0 0
BITMAP
1FFFFC
3FFFFC
DFFFF9
EFFFF3
F7FFE7
FBFFCF
FC001F
FC003F
FC003F
00003F
00003F
00003F
00003F
00003F
00001F
00000F
07FFE7
0FFFF2
1FFFF8
1FFFF8
0FFFF0
07FFE0
000000
000000
000000
000000
000000
000000
000000
000000
000000
000000
000000
01FFC0
07FFE0
0FFFF0
1FFFF8
3FFFFC
3FFFFC
ENDCHAR
STARTCHAR Udieresis
ENCODING 220
SWIDTH 536 0
DWIDTH 30 0
BBX 24 39 0 0
BITMAP
1FFFFC
3FFFFC
DFFFF9
EFFFF3
F7FFE7
FBFFCF
FC001F
FC003F
FC003F
00003F
00003F
00003F
00003F
00003F
00001F
00000F
07FFE7
0FFFF2
1FFFF8
1FFFF8
0FFFF0
07FFE0
000000
000000
000000
000000
000000
000000
000000
000000
000000
000000
000000
01FFC0
07FFE0
0FFFF0
1FFFF8
3FFFFC
3FFFFC
ENDCHAR
STARTCHAR Yacute
ENCODING 221
SWIDTH 536 0
DWIDTH 30 0
BBX 24 39 0 0
BITMAP
1FFFFC
3FFFFC
DFFFF9
EFFFF3
F7FFE7
FBFFCF
FC001F
FC003F
FC003F
00003F
00003F
00003F
00003F
00003F
00001F
00000F
07FFE7
0FFFF2
1FFFF8
1FFFF8
0FFFF0
07FFE0
000000
000000
000000
000000
000000
000000
000000
000000
000000
000000
000000
01FFC0
07FFE0
0FFFF0
1FFFF8
3FFFFC
3FFFFC
ENDCHAR
STARTCHAR Thorn
ENCODING 222
SWIDTH 536 0
DWIDTH 30 0
BBX 24 39 0 0
BITMAP
1FFFFC
3FFFFC
DFFFF9
EFFFF3
F7FFE7
FBFFCF
FC001F
FC003F
FC003F
00003F
00003F
00003F
00003F
00003F
00001F
00000F
07FFE7
0FFFF2
1FFFF8
1FFFF8
0FFFF0
07FFE0
000000
000000
000000
000000
000000
000000
000000
000000
000000
000000
000000
01FFC0
07FFE0
0FFFF0
1FFFF8
3FFFFC
3FFFFC
ENDCHAR
STARTCHAR germandbls
ENCODING 223
SWIDTH 536 0
DWIDTH 30 0
BBX 24 39 0 0
BITMAP
1FFFFC
3FFFFC
DFFFF9
EFFFF3
F7FFE7
FBFFCF
FC001F
FC003F
FC003F
00003F
00003F
00003F
00003F
00003F
00001F
00000F
07FFE7
0FFFF2
1FFFF8
1FFFF8
0FFFF0
07FFE0
000000
000000
000000
000000
000000
000000
000000
000000
000000
000000
000000
01FFC0
07FFE0
0FFFF0
1FFFF8
3FFFFC
3FFFFC
ENDCHAR
STARTCHAR agrave
ENCODING 224
SWIDTH 536 0
DWIDTH 30 0
BBX 24 39 0 0
BITMAP
1FFFFC
3FFFFC
DFFFF9
EFFFF3
F7FFE7
FBFFCF
FC001F
FC003F
FC003F
00003F
00003F
00003F
00003F
00003F
00001F
00000F
07FFE7
0FFFF2
1FFFF8
1FFFF8
0FFFF0
07FFE0
000000
000000
000000
000000
000000
000000
000000
000000
000000
000000
000000
01FFC0
07FFE0
0FFFF0
1FFFF8
3FFFFC
3FFFFC
ENDCHAR
STARTCHAR aacute
ENCODING 225
SWIDTH 536 0
DWIDTH 30 0
BBX 24 39 0 0
BITMAP
1FFFFC
3FFFFC
DFFFF9
EFFFF3
F7FFE7
FBFFCF
FC001F
FC003F
FC003F
00003F
00003F
00003F
00003F
00003F
00001F
00000F
07FFE7
0FFFF2
1FFFF8
1FFFF8
0FFFF0
07FFE0
000000
000000
000000
000000
000000
000000
000000
000000
000000
000000
000000
01FFC0
07FFE0
0FFFF0
1FFFF8
3FFFFC
3FFFFC
ENDCHAR
STARTCHAR acircumflex
ENCODING 226
SWIDTH 536 0
DWIDTH 30 0
BBX 24 39 0 0
BITMAP
1FFFFC
3FFFFC
DFFFF9
EFFFF3
F7FFE7
FBFFCF
FC001F
FC003F
FC003F
00003F
00003F
00003F
00003F
00003F
00001F
00000F
07FFE7
0FFFF2
1FFFF8
1FFFF8
0FFFF0
07FFE0
000000
000000
000000
000000
000000
000000
000000
000000
000000
000000
000000
01FFC0
07FFE0
0FFFF0
1FFFF8
3FFFFC
3FFFFC
ENDCHAR
STARTCHAR atilde
ENCODING 227
SWIDTH 536 0
DWIDTH 30 0
BBX 24 39 0 0
BITMAP
1FFFFC
3FFFFC
DFFFF9
EFFFF3
F7FFE7
FBFFCF
FC001F
FC003F
FC003F
00003F
00003F
00003F
00003F
00003F
00001F
00000F
07FFE7
0FFFF2
1FFFF8
1FFFF8
0FFFF0
07FFE0
000000
000000
000000
000000
000000
000000
000000
000000
000000
000000
000000
01FFC0
07FFE0
0FFFF0
1FFFF8
3FFFFC
3FFFFC
ENDCHAR
STARTCHAR adieresis
ENCODING 228
SWIDTH 536 0
DWIDTH 30 0
BBX 24 39 0 0
BITMAP
1FFFFC
3FFFFC
DFFFF9
EFFFF3
F7FFE7
FBFFCF
FC001F
FC003F
FC003F
00003F
00003F
00003F
00003F
00003F
00001F
00000F
07FFE7
0FFFF2
1FFFF8
1FFFF8
0FFFF0
07FFE0
000000
000000
000000
000000
000000
000000
000000
000000
000000
000000
000000
01FFC0
07FFE0
0FFFF0
1FFFF8
3FFFFC
3FFFFC
ENDCHAR
STARTCHAR aring
ENCODING 229
SWIDTH 536 0
DWIDTH 30 0
BBX 24 39 0 0
BITMAP
1FFFFC
3FFFFC
DFFFF9
EFFFF3
F7FFE7
FBFFCF
FC001F
FC003F
FC003F
00003F
00003F
00003F
00003F
00003F
00001F
00000F
07FFE7
0FFFF2
1FFFF8
1FFFF8
0FFFF0
07FFE0
000000
000000
000000
000000
000000
000000
000000
000000
000000
000000
000000
01FFC0
07FFE0
0FFFF0
1FFFF8
3FFFFC
3FFFFC
ENDCHAR
STARTCHAR ae
ENCODING 230
SWIDTH 536 0
DWIDTH 30 0
BBX 24 39 0 0
BITMAP
1FFFFC
3FFFFC
DFFFF9
EFFFF3
F7FFE7
FBFFCF
FC001F
FC003F
FC003F
00003F
00003F
00003F
00003F
00003F
00001F
00000F
07FFE7
0FFFF2
1FFFF8
1FFFF8
0FFFF0
07FFE0
000000
000000
000000
000000
000000
000000
000000
000000
000000
000000
000000
01FFC0
07FFE0
0FFFF0
1FFFF8
3FFFFC
3FFFFC
ENDCHAR
STARTCHAR ccedilla
ENCODING 231
SWIDTH 536 0
DWIDTH 30 0
BBX 24 39 0 0
BITMAP
1FFFFC
3FFFFC
DFFFF9
EFFFF3
F7FFE7
FBFFCF
FC001F
FC003F
FC003F
00003F
00003F
00003F
00003F
00003F
00001F
00000F
07FFE7
0FFFF2
1FFFF8
1FFFF8
0FFFF0
07FFE0
000000
000000
000000
000000
000000
000000
000000
000000
000000
000000
000000
01FFC0
07FFE0
0FFFF0
1FFFF8
3FFFFC
3FFFFC
ENDCHAR
STARTCHAR egrave
ENCODING 232
SWIDTH 536 0
DWIDTH 30 0
BBX 24 39 0 0
BITMAP
1FFFFC
3FFFFC
DFFFF9
EFFFF3
F7FFE7
FBFFCF
FC001F
FC003F
FC003F
00003F
00003F
00003F
00003F
00003F
00001F
00000F
07FFE7
0FFFF2
1FFFF8
1FFFF8
0FFFF0
07FFE0
000000
000000
000000
000000
000000
000000
000000
000000
000000
000000
000000
01FFC0
07FFE0
0FFFF0
1FFFF8
3FFFFC
3FFFFC
ENDCHAR
STARTCHAR eacute
ENCODING 233
SWIDTH 536 0
DWIDTH 30 0
BBX 24 39 0 0
BITMAP
1FFFFC
3FFFFC
DFFFF9
EFFFF3
F7FFE7
FBFFCF
FC001F
FC003F
FC003F
00003F
00003F
00003F
00003F
00003F
00001F
00000F
07FFE7
0FFFF2
1FFFF8
1FFFF8
0FFFF0
07FFE0
000000
000000
000000
000000
000000
000000
000000
000000
000000
000000
000000
01FFC0
07FFE0
0FFFF0
1FFFF8
3FFFFC
3FFFFC
ENDCHAR
STARTCHAR ecircumflex
ENCODING 234
SWIDTH 536 0
DWIDTH 30 0
BBX 24 39 0 0
BITMAP
1FFFFC
3FFFFC
DFFFF9
EFFFF3
F7FFE7
FBFFCF
FC001F
FC003F
FC003F
00003F
00003F
00003F
00003F
00003F
00001F
00000F
07FFE7
0FFFF2
1FFFF8
1FFFF8
0FFFF0
07FFE0
000000
000000
000000
000000
000000
000000
000000
000000
000000
000000
000000
01FFC0
07FFE0
0FFFF0
1FFFF8
3FFFFC
3FFFFC
ENDCHAR
STARTCHAR edieresis
ENCODING 235
SWIDTH 536 0
DWIDTH 30 0
BBX 24 39 0 0
BITMAP
1FFFFC
3FFFFC
DFFFF9
EFFFF3
F7FFE7
FBFFCF
FC001F
FC003F
FC003F
00003F
00003F
00003F
00003F
00003F
00001F
00000F
07FFE7
0FFFF2
1FFFF8
1FFFF8
0FFFF0
07FFE0
000000
000000
000000
000000
000000
000000
000000
000000
000000
000000
000000
01FFC0
07FFE0
0FFFF0
1FFFF8
3FFFFC
3FFFFC
ENDCHAR
STARTCHAR igrave
ENCODING 236
SWIDTH 536 0
DWIDTH 30 0
BBX 24 39 0 0
BITMAP
1FFFFC
3FFFFC
DFFFF9
EFFFF3
F7FFE7
FBFFCF
FC001F
FC003F
FC003F
00003F
00003F
00003F
00003F
00003F
00001F
00000F
07FFE7
0FFFF2
1FFFF8
1FFFF8
0FFFF0
07FFE0
000000
000000
000000
000000
000000
000000
000000
000000
000000
000000
000000
01FFC0
07FFE0
0FFFF0
1FFFF8
3FFFFC
3FFFFC
ENDCHAR
STARTCHAR iacute
ENCODING 237
SWIDTH 536 0
DWIDTH 30 0
BBX 24 39 0 0
BITMAP
1FFFFC
3FFFFC
DFFFF9
EFFFF3
F7FFE7
FBFFCF
FC001F
FC003F
FC003F
00003F
00003F
00003F
00003F
00003F
00001F
00000F
07FFE7
0FFFF2
1FFFF8
1FFFF8
0FFFF0
07FFE0
000000
000000
000000
000000
000000
000000
000000
000000
000000
000000
000000
01FFC0
07FFE0
0FFFF0
1FFFF8
3FFFFC
3FFFFC
ENDCHAR
STARTCHAR icircumflex
ENCODING 238
SWIDTH 536 0
DWIDTH 30 0
BBX 24 39 0 0
BITMAP
1FFFFC
3FFFFC
DFFFF9
EFFFF3
F7FFE7
FBFFCF
FC001F
FC003F
FC003F
00003F
00003F
00003F
00003F
00003F
00001F
00000F
07FFE7
0FFFF2
1FFFF8
1FFFF8
0FFFF0
07FFE0
000000
000000
000000
000000
000000
000000
000000
000000
000000
000000
000000
01FFC0
07FFE0
0FFFF0
1FFFF8
3FFFFC
3FFFFC
ENDCHAR
STARTCHAR idieresis
ENCODING 239
SWIDTH 536 0
DWIDTH 30 0
BBX 24 39 0 0
BITMAP
1FFFFC
3FFFFC
DFFFF9
EFFFF3
F7FFE7
FBFFCF
FC001F
FC003F
FC003F
00003F
00003F
00003F
00003F
00003F
00001F
00000F
07FFE7
0FFFF2
1FFFF8
1FFFF8
0FFFF0
07FFE0
000000
000000
000000
000000
000000
000000
000000
000000
000000
000000
000000
01FFC0
07FFE0
0FFFF0
1FFFF8
3FFFFC
3FFFFC
ENDCHAR
STARTCHAR eth
ENCODING 240
SWIDTH 536 0
DWIDTH 30 0
BBX 24 39 0 0
BITMAP
1FFFFC
3FFFFC
DFFFF9
EFFFF3
F7FFE7
FBFFCF
FC001F
FC003F
FC003F
00003F
00003F
00003F
00003F
00003F
00001F
00000F
07FFE7
0FFFF2
1FFFF8
1FFFF8
0FFFF0
07FFE0
000000
000000
000000
000000
000000
000000
000000
000000
000000
000000
000000
01FFC0
07FFE0
0FFFF0
1FFFF8
3FFFFC
3FFFFC
ENDCHAR
STARTCHAR ntilde
ENCODING 241
SWIDTH 536 0
DWIDTH 30 0
BBX 24 39 0 0
BITMAP
1FFFFC
3FFFFC
DFFFF9
EFFFF3
F7FFE7
FBFFCF
FC001F
FC003F
FC003F
00003F
00003F
00003F
00003F
00003F
00001F
00000F
07FFE7
0FFFF2
1FFFF8
1FFFF8
0FFFF0
07FFE0
000000
000000
000000
000000
000000
000000
000000
000000
000000
000000
000000
01FFC0
07FFE0
0FFFF0
1FFFF8
3FFFFC
3FFFFC
ENDCHAR
STARTCHAR ograve
ENCODING 242
SWIDTH 536 0
DWIDTH 30 0
BBX 24 39 0 0
BITMAP
1FFFFC
3FFFFC
DFFFF9
EFFFF3
F7FFE7
FBFFCF
FC001F
FC003F
FC003F
00003F
00003F
00003F
00003F
00003F
00001F
00000F
07FFE7
0FFFF2
1FFFF8
1FFFF8
0FFFF0
07FFE0
000000
000000
000000
000000
000000
000000
000000
000000
000000
000000
000000
01FFC0
07FFE0
0FFFF0
1FFFF8
3FFFFC
3FFFFC
ENDCHAR
STARTCHAR oacute
ENCODING 243
SWIDTH 536 0
DWIDTH 30 0
BBX 24 39 0 0
BITMAP
1FFFFC
3FFFFC
DFFFF9
EFFFF3
F7FFE7
FBFFCF
FC001F
FC003F
FC003F
00003F
00003F
00003F
00003F
00003F
00001F
00000F
07FFE7
0FFFF2
1FFFF8
1FFFF8
0FFFF0
07FFE0
000000
000000
000000
000000
000000
000000
000000
000000
000000
000000
000000
01FFC0
07FFE0
0FFFF0
1FFFF8
3FFFFC
3FFFFC
ENDCHAR
STARTCHAR ocircumflex
ENCODING 244
SWIDTH 536 0
DWIDTH 30 0
BBX 24 39 0 0
BITMAP
1FFFFC
3FFFFC
DFFFF9
EFFFF3
F7FFE7
FBFFCF
FC001F
FC003F
FC003F
00003F
00003F
00003F
00003F
00003F
00001F
00000F
07FFE7
0FFFF2
1FFFF8
1FFFF8
0FFFF0
07FFE0
000000
000000
000000
000000
000000
000000
000000
000000
000000
000000
000000
01FFC0
07FFE0
0FFFF0
1FFFF8
3FFFFC
3FFFFC
ENDCHAR
STARTCHAR otilde
ENCODING 245
SWIDTH 536 0
DWIDTH 30 0
BBX 24 39 0 0
BITMAP
1FFFFC
3FFFFC
DFFFF9
EFFFF3
F7FFE7
FBFFCF
FC001F
FC003F
FC003F
00003F
00003F
00003F
00003F
00003F
00001F
00000F
07FFE7
0FFFF2
1FFFF8
1FFFF8
0FFFF0
07FFE0
000000
000000
000000
000000
000000
000000
000000
000000
000000
000000
000000
01FFC0
07FFE0
0FFFF0
1FFFF8
3FFFFC
3FFFFC
ENDCHAR
STARTCHAR odieresis
ENCODING 246
SWIDTH 536 0
DWIDTH 30 0
BBX 24 39 0 0
BITMAP
1FFFFC
3FFFFC
DFFFF9
EFFFF3
F7FFE7
FBFFCF
FC001F
FC003F
FC003F
00003F
00003F
00003F
00003F
00003F
00001F
00000F
07FFE7
0FFFF2
1FFFF8
1FFFF8
0FFFF0
07FFE0
000000
000000
000000
000000
000000
000000
000000
000000
000000
000000
000000
01FFC0
07FFE0
0FFFF0
1FFFF8
3FFFFC
3FFFFC
ENDCHAR
STARTCHAR divide
ENCODING 247
SWIDTH 495 0
DWIDTH 28 0
BBX 23 26 2 6
BITMAP
001800
003C00
007E00
00FE00
007E00
003C00
001800
000000
000000
000000
000000
FFFFFE
FFFFFE
FFFFFE
FFFFFE
000000
000000
000000
000000
001800
003C00
007E00
00FE00
007E00
003C00
001800
ENDCHAR
STARTCHAR oslash
ENCODING 248
SWIDTH 536 0
DWIDTH 30 0
BBX 24 39 0 0
BITMAP
1FFFFC
3FFFFC
DFFFF9
EFFFF3
F7FFE7
FBFFCF
FC001F
FC003F
FC003F
00003F
00003F
00003F
00003F
00003F
00001F
00000F
07FFE7
0FFFF2
1FFFF8
1FFFF8
0FFFF0
07FFE0
000000
000000
000000
000000
000000
000000
000000
000000
000000
000000
000000
01FFC0
07FFE0
0FFFF0
1FFFF8
3FFFFC
3FFFFC
ENDCHAR
STARTCHAR ugrave
ENCODING 249
SWIDTH 536 0
DWIDTH 30 0
BBX 24 39 0 0
BITMAP
1FFFFC
3FFFFC
DFFFF9
EFFFF3
F7FFE7
FBFFCF
FC001F
FC003F
FC003F
00003F
00003F
00003F
00003F
00003F
00001F
00000F
07FFE7
0FFFF2
1FFFF8
1FFFF8
0FFFF0
07FFE0
000000
000000
000000
000000
000000
000000
000000
000000
000000
000000
000000
01FFC0
07FFE0
0FFFF0
1FFFF8
3FFFFC
3FFFFC
ENDCHAR
STARTCHAR uacute
ENCODING 250
SWIDTH 536 0
DWIDTH 30 0
BBX 24 39 0 0
BITMAP
1FFFFC
3FFFFC
DFFFF9
EFFFF3
F7FFE7
FBFFCF
FC001F
FC003F
FC003F
00003F
00003F
00003F
00003F
00003F
00001F
00000F
07FFE7
0FFFF2
1FFFF8
1FFFF8
0FFFF0
07FFE0
000000
000000
000000
000000
000000
000000
000000
000000
000000
000000
000000
01FFC0
07FFE0
0FFFF0
1FFFF8
3FFFFC
3FFFFC
ENDCHAR
STARTCHAR ucircumflex
ENCODING 251
SWIDTH 536 0
DWIDTH 30 0
BBX 24 39 0 0
BITMAP
1FFFFC
3FFFFC
DFFFF9
EFFFF3
F7FFE7
FBFFCF
FC001F
FC003F
FC003F
00003F
00003F
00003F
00003F
00003F
00001F
00000F
07FFE7
0FFFF2
1FFFF8
1FFFF8
0FFFF0
07FFE0
000000
000000
000000
000000
000000
000000
000000
000000
000000
000000
000000
01FFC0
07FFE0
0FFFF0
1FFFF8
3FFFFC
3FFFFC
ENDCHAR
STARTCHAR udieresis
ENCODING 252
SWIDTH 536 0
DWIDTH 30 0
BBX 24 39 0 0
BITMAP
1FFFFC
3FFFFC
DFFFF9
EFFFF3
F7FFE7
FBFFCF
FC001F
FC003F
FC003F
00003F
00003F
00003F
00003F
00003F
00001F
00000F
07FFE7
0FFFF2
1FFFF8
1FFFF8
0FFFF0
07FFE0
000000
000000
000000
000000
000000
000000
000000
000000
000000
000000
000000
01FFC0
07FFE0
0FFFF0
1FFFF8
3FFFFC
3FFFFC
ENDCHAR
STARTCHAR yacute
ENCODING 253
SWIDTH 536 0
DWIDTH 30 0
BBX 24 39 0 0
BITMAP
1FFFFC
3FFFFC
DFFFF9
EFFFF3
F7FFE7
FBFFCF
FC001F
FC003F
FC003F
00003F
00003F
00003F
00003F
00003F
00001F
00000F
07FFE7
0FFFF2
1FFFF8
1FFFF8
0FFFF0
07FFE0
000000
000000
000000
000000
000000
000000
000000
000000
000000
000000
000000
01FFC0
07FFE0
0FFFF0
1FFFF8
3FFFFC
3FFFFC
ENDCHAR
STARTCHAR thorn
ENCODING 254
SWIDTH 536 0
DWIDTH 30 0
BBX 24 39 0 0
BITMAP
1FFFFC
3FFFFC
DFFFF9
EFFFF3
F7FFE7
FBFFCF
FC001F
FC003F
FC003F
00003F
00003F
00003F
00003F
00003F
00001F
00000F
07FFE7
0FFFF2
1FFFF8
1FFFF8
0FFFF0
07FFE0
000000
000000
000000
000000
000000
000000
000000
000000
000000
000000
000000
01FFC0
07FFE0
0FFFF0
1FFFF8
3FFFFC
3FFFFC
ENDCHAR
STARTCHAR ydieresis
ENCODING 255
SWIDTH 536 0
DWIDTH 30 0
BBX 24 39 0 0
BITMAP
1FFFFC
3FFFFC
DFFFF9
EFFFF3
F7FFE7
FBFFCF
FC001F
FC003F
FC003F
00003F
00003F
00003F
00003F
00003F
00001F
00000F
07FFE7
0FFFF2
1FFFF8
1FFFF8
0FFFF0
07FFE0
000000
000000
000000
000000
000000
000000
000000
000000
000000
000000
000000
01FFC0
07FFE0
0FFFF0
1FFFF8
3FFFFC
3FFFFC
ENDCHAR
STARTCHAR dotlessi
ENCODING 305
SWIDTH 250 0
DWIDTH 14 0
BBX 12 26 1 0
BITMAP
0100
0300
0700
0F00
7F00
FF00
3F00
0F00
0F00
0F00
0F00
0F00
0F00
0F00
0F00
0F00
0F00
0F00
0F00
0F00
0F00
0F00
0F00
1F80
3F80
FFF0
ENDCHAR
STARTCHAR circumflex
ENCODING 710
SWIDTH 500 0
DWIDTH 28 0
BBX 16 10 6 29
BITMAP
03C0
03C0
07E0
0FF0
0FF0
1E78
3C3C
300C
6006
C003
ENDCHAR
STARTCHAR caron
ENCODING 711
SWIDTH 500 0
DWIDTH 28 0
BBX 16 10 6 29
BITMAP
C003
6006
700E
381C
1C38
1E78
0FF0
07E0
07E0
03C0
ENDCHAR
STARTCHAR uni02C9
ENCODING 713
SWIDTH 536 0
DWIDTH 30 0
BBX 20 6 2 33
BITMAP
7FFFE0
FFFFF0
7FFFE0
3FFFC0
1FFF80
0FFF00
ENDCHAR
STARTCHAR breve
ENCODING 728
SWIDTH 500 0
DWIDTH 28 0
BBX 16 8 6 29
BITMAP
8001
C003
E006
700E
7FFE
3FFC
1FF8
07E0
ENDCHAR
STARTCHAR dotaccent
ENCODING 729
SWIDTH 500 0
DWIDTH 28 0
BBX 6 7 11 31
BITMAP
10
38
78
FC
7C
38
30
ENDCHAR
STARTCHAR ring
ENCODING 730
SWIDTH 536 0
DWIDTH 30 0
BBX 24 22 0 17
BITMAP
1FFFFC
3FFFFC
DFFFF9
EFFFF3
F7FFE7
FBFFCF
FC001F
FC003F
FC003F
FC003F
FC003F
FC003F
FC003F
FC003F
FC001F
F8000F
F7FFE7
4FFFF2
1FFFF8
1FFFF8
0FFFF0
07FFE0
ENDCHAR
STARTCHAR ogonek
ENCODING 731
SWIDTH 536 0
DWIDTH 30 0
BBX 22 18 0 0
BITMAP
600000
F00000
F80000
FC0000
FC0000
FC0000
FC0000
FC0000
FC0000
FC0000
FC0000
FC0000
F9FFC0
F7FFE0
EFFFF0
DFFFF8
3FFFFC
3FFFFC
ENDCHAR
STARTCHAR tilde
ENCODING 732
SWIDTH 536 0
DWIDTH 30 0
BBX 20 6 2 33
BITMAP
7FFFE0
FFFFF0
7FFFE0
3FFFC0
1FFF80
0FFF00
ENDCHAR
STARTCHAR hungarumlaut
ENCODING 733
SWIDTH 341 0
DWIDTH 19 0
BBX 15 16 0 21
BITMAP
C020
E030
F038
F83C
FC3E
FC3E
FC3E
FC3E
FC3E
FC3E
FC3E
FC3E
FC3E
F83C
F038
6030
ENDCHAR
STARTCHAR semicolon.dup4
ENCODING 894
SWIDTH 202 0
DWIDTH 11 0
BBX 6 28 0 3
BITMAP
FC
FC
FC
FC
FC
FC
00
00
00
00
00
00
00
00
00
00
FC
FC
FC
FC
FC
FC
FC
FC
FC
FC
FC
FC
ENDCHAR
STARTCHAR endash
ENCODING 8211
SWIDTH 536 0
DWIDTH 30 0
BBX 18 6 3 17
BITMAP
3FFF00
7FFF80
FFFFC0
FFFFC0
7FFF80
3FFF00
ENDCHAR
STARTCHAR emdash
ENCODING 8212
SWIDTH 1000 0
DWIDTH 56 0
BBX 56 3 0 11
BITMAP
FFFFFFFFFFFFFF
FFFFFFFFFFFFFF
FFFFFFFFFFFFFF
ENDCHAR
STARTCHAR quoteleft
ENCODING 8216
SWIDTH 196 0
DWIDTH 11 0
BBX 6 16 0 21
BITMAP
C0
E0
F0
F8
FC
FC
FC
FC
FC
FC
FC
FC
FC
F8
F0
60
ENDCHAR
STARTCHAR quoteright
ENCODING 8217
SWIDTH 196 0
DWIDTH 11 0
BBX 6 16 0 21
BITMAP
C0
E0
F0
F8
FC
FC
FC
FC
FC
FC
FC
FC
FC
F8
F0
60
ENDCHAR
STARTCHAR quotesinglbase
ENCODING 8218
SWIDTH 173 0
DWIDTH 10 0
BBX 6 16 0 2
BITMAP
60
F0
F8
FC
FC
FC
FC
FC
FC
FC
FC
FC
F8
F0
E0
C0
ENDCHAR
STARTCHAR quotedblleft
ENCODING 8220
SWIDTH 341 0
DWIDTH 19 0
BBX 15 16 0 21
BITMAP
C020
E030
F038
F83C
FC3E
FC3E
FC3E
FC3E
FC3E
FC3E
FC3E
FC3E
FC3E
F83C
F038
6030
ENDCHAR
STARTCHAR quotedblright
ENCODING 8221
SWIDTH 341 0
DWIDTH 19 0
BBX 15 16 0 21
BITMAP
C020
E030
F038
F83C
FC3E
FC3E
FC3E
FC3E
FC3E
FC3E
FC3E
FC3E
FC3E
F83C
F038
6030
ENDCHAR
STARTCHAR quotedblbase
ENCODING 8222
SWIDTH 444 0
DWIDTH 25 0
BBX 17 16 3 -8
BITMAP
100400
180E00
3C1F00
7E3F00
FE3F80
7E1F80
3E0F80
1E0780
0E0780
0E0700
0C0700
1C0700
180600
180C00
300C00
601800
ENDCHAR
STARTCHAR bullet
ENCODING 8226
SWIDTH 500 0
DWIDTH 28 0
BBX 16 16 6 11
BITMAP
07E0
1FF8
3FFC
7FFE
7FFE
FFFF
FFFF
FFFF
FFFF
FFFF
FFFF
7FFE
7FFE
3FFC
1FF8
07E0
ENDCHAR
STARTCHAR ellipsis
ENCODING 8230
SWIDTH 1000 0
DWIDTH 56 0
BBX 44 7 4 0
BITMAP
300006000180
78000F0003C0
FC001F8007E0
FC003F8007F0
FC001F0003E0
78000E0003C0
300004000180
ENDCHAR
STARTCHAR guilsinglleft
ENCODING 8249
SWIDTH 308 0
DWIDTH 17 0
BBX 10 16 5 5
BITMAP
00C0
0180
0300
0600
0E00
3C00
7800
F000
F000
3800
1C00
0E00
0600
0300
0180
00C0
ENDCHAR
STARTCHAR guilsinglright
ENCODING 8250
SWIDTH 308 0
DWIDTH 17 0
BBX 10 16 3 5
BITMAP
8000
C000
6000
3800
1C00
0E00
0F00
07C0
0780
0F00
1E00
1800
3000
6000
C000
8000
ENDCHAR
STARTCHAR franc
ENCODING 8355
SWIDTH 495 0
DWIDTH 28 0
BBX 28 39 1 0
BITMAP
FFFFFFC0
0FF001C0
07E00040
07E00020
07C00020
03C00010
03C00000
03C00000
03C00000
03C00000
03C00000
03C00000
03C00000
03C00000
03C00100
03C00100
03C00300
03FFFF00
03FFFF00
03FFFF00
03C00300
03C00100
03C00100
03C00000
03C00000
03C00000
03C00000
03C00000
FFFE0000
FFFE0000
03C00000
03C00000
03C00000
03C00000
03C00000
07E00000
07E00000
0FF00000
FFFF0000
ENDCHAR
STARTCHAR lira
ENCODING 8356
SWIDTH 495 0
DWIDTH 28 0
BBX 24 40 2 0
BITMAP
003FF0
00FFFC
03F07C
07C01C
07800C
0F0004
1F0000
1E0000
1E0000
3E0000
3E0000
3E0000
3E0000
3E0000
3E0000
3E0000
1E0000
1E0000
FFFFC0
FFFFC0
0F0000
7FFFC0
7FFFC0
03C000
03C000
03C000
03E000
03C000
03C000
03C000
03C000
078000
078000
0F0001
0F0002
1E0006
1E000C
3FFFFC
7FFFF8
7FFFF8
ENDCHAR
STARTCHAR peseta
ENCODING 8359
SWIDTH 990 0
DWIDTH 55 0
BBX 53 39 1 0
BITMAP
FFFFF000000000
0FC03C00000000
07C00E00000000
07C00700200000
03C00780200000
03C003C0600000
03C003C0600000
03C001E0600000
03C001E0600000
03C001E0E00000
03C001E0E00000
03C001E3E00000
03C001FFFFFF80
03C001E1E0E3E0
03C001E1E180E0
03C001E1E38060
03C001E1E38020
03C001E1E38000
03C001C1E38000
03C003C1E3C000
03E00381E3E000
03E00381E3F000
03F00701E1FC00
03D80E01E0FF00
03CE1C01E07FC0
03C3F001E01FE0
03C00001E007F0
03C00001E003F0
03C00001E000F8
03C00001E00078
03C00001E00038
03C00001EC0038
03C00001E40038
03C00001E60030
07E00001E60070
07E00000F30060
0FF00000FFC1E0
FFFF00007FFF80
000000003E3E00
ENDCHAR
STARTCHAR Euro
ENCODING 8364
SWIDTH 495 0
DWIDTH 28 0
BBX 30 40 -1 0
BITMAP
0000FE40
000707E0
001C00E0
00380060
00600030
00C00010
01C00010
03800008
03800000
07000000
07000000
0E000000
0E000000
1E000000
1E000000
1C000000
1C000000
7FFFFFC0
7FFFFF80
1C000000
1C000000
FFFFFF80
FFFFFF00
1C000000
1E000000
1E000000
1E000000
0E000000
0F000000
07000000
07800000
07800000
03C00004
01C00004
00E0000C
00F0000C
0078001C
001C0038
000780F0
0001FF80
ENDCHAR
STARTCHAR uni2116
ENCODING 8470
SWIDTH 536 0
DWIDTH 30 0
BBX 24 39 0 0
BITMAP
3FFFFC
3FFFFC
DFFFF9
EFFFF3
F7FFE7
FBFFCF
FC001F
FC003F
FC003F
00003F
00003F
00003F
00003F
00003F
00001F
00000F
07FFE7
0FFFF2
1FFFF8
1FFFF8
0FFFF0
07FFE0
000000
000000
000000
000000
000000
000000
000000
000000
000000
000000
000000
03FFC0
07FFE0
0FFFF0
1FFFF8
3FFFFC
3FFFFC
ENDCHAR
STARTCHAR trademark
ENCODING 8482
SWIDTH 536 0
DWIDTH 30 0
BBX 24 39 0 0
BITMAP
3FFFFC
3FFFFC
DFFFF9
EFFFF3
F7FFE7
FBFFCF
FC001F
FC003F
FC003F
00003F
00003F
00003F
00003F
00003F
00001F
00000F
07FFE7
0FFFF2
1FFFF8
1FFFF8
0FFFF0
07FFE0
000000
000000
000000
000000
000000
000000
000000
000000
000000
000000
000000
03FFC0
07FFE0
0FFFF0
1FFFF8
3FFFFC
3FFFFC
ENDCHAR
STARTCHAR partialdiff
ENCODING 8706
SWIDTH 495 0
DWIDTH 28 0
BBX 24 41 2 -1
BITMAP
100000
0F8000
03F000
007800
003C00
000F00
000700
000380
0001C0
0001E0
0000E0
000070
000070
000038
007E38
01879C
0603DC
0C01FC
1C00FE
38007E
38007E
78003E
78003E
70003E
F0001F
F0001F
F0001F
F0001F
F8001F
F8001E
F8001E
78001E
78001E
7C001C
3C001C
3E0038
1E0038
0F0070
0780E0
03E180
007E00
ENDCHAR
STARTCHAR Delta
ENCODING 8710
SWIDTH 527 0
DWIDTH 30 0
BBX 29 39 0 0
BITMAP
00020000
00030000
00030000
00030000
00078000
00078000
000F8000
000FC000
0009C000
0019E000
0010E000
0010E000
0030F000
00207000
00607000
00607800
00403800
00C03800
00801C00
00801C00
01801E00
01000E00
03000E00
03000F00
02000700
06000700
04000780
0C000380
0C000380
080001C0
180001C0
180001E0
100000E0
300000E0
200000F0
60000070
7FFFFFF0
7FFFFFF8
FFFFFFF8
ENDCHAR
STARTCHAR product
ENCODING 8719
SWIDTH 739 0
DWIDTH 41 0
BBX 39 50 1 -11
BITMAP
FFFFFFFFFE
0FF0001FE0
07E0000FC0
07E00007C0
07C00007C0
03C00007C0
03C00007C0
03C00007C0
03C00007C0
03C00007C0
03C00007C0
03C00007C0
03C00007C0
03C00007C0
03C00007C0
03C00007C0
03C00007C0
03C00007C0
03C00007C0
03C00007C0
03C00007C0
03C00007C0
03C00007C0
03C00007C0
03C00007C0
03C00007C0
03C00007C0
03C00007C0
03C00007C0
03C00007C0
03C00007C0
03C00007C0
03C00007C0
03C00007C0
03C00007C0
03C00007C0
03C00007C0
03C00007C0
03C00007C0
03C00007C0
03C00007C0
03C00007C0
03C00007C0
03C00007C0
03C00007C0
03C00007C0
07E00007C0
07E0000FC0
0FF0000FE0
FFFF00FFFE
ENDCHAR
STARTCHAR summation
ENCODING 8721
SWIDTH 588 0
DWIDTH 33 0
BBX 28 50 3 -11
BITMAP
FFFFFFC0
3F8001C0
1FC00060
0FC00020
07E00030
07F00010
03F80000
01F80000
00FC0000
00FE0000
007F0000
003F0000
001F8000
001FC000
000FE000
0007E000
0003F000
0001F800
0001FC00
0000FE00
00007E00
00003F00
00003F80
00001FC0
00000FC0
00000780
00000700
00000E00
00001C00
00001800
00003000
00007000
0000E000
0001C000
00038000
00070000
00060000
000C0000
00180000
00380000
00700000
00E00000
01C00000
01800000
03000010
06000030
0E000020
1C000060
380000C0
FFFFFFC0
ENDCHAR
STARTCHAR minus
ENCODING 8722
SWIDTH 536 0
DWIDTH 30 0
BBX 18 6 3 17
BITMAP
3FFF00
7FFF80
FFFFC0
FFFFC0
7FFF80
3FFF00
ENDCHAR
STARTCHAR periodcentered.dup5
ENCODING 8729
SWIDTH 536 0
DWIDTH 30 0
BBX 24 39 0 0
BITMAP
1FFFFC
3FFFFC
DFFFF9
EFFFF3
F7FFE7
FBFFCF
FC001F
FC003F
FC003F
00003F
00003F
00003F
00003F
00003F
00001F
00000F
07FFE7
0FFFF2
1FFFF8
1FFFF8
0FFFF0
07FFE0
000000
000000
000000
000000
000000
000000
000000
000000
000000
000000
000000
01FFC0
07FFE0
0FFFF0
1FFFF8
3FFFFC
3FFFFC
ENDCHAR
STARTCHAR radical
ENCODING 8730
SWIDTH 495 0
DWIDTH 28 0
BBX 29 46 0 0
BITMAP
00000078
000000F8
000000E0
000001C0
000001C0
00000380
00000380
00000700
00000700
00000E00
00000E00
00001C00
00001C00
00003800
00003800
00007000
00007000
0000E000
0000E000
0001C000
0001C000
00038000
00038000
00070000
00070000
000E0000
000E0000
001C0000
001C0000
00380000
00380000
00700000
00700000
00E00000
00E00000
21C00000
E1C00000
63800000
73800000
37000000
3F000000
1E000000
1E000000
0C000000
0C000000
08000000
ENDCHAR
STARTCHAR infinity
ENCODING 8734
SWIDTH 495 0
DWIDTH 28 0
BBX 24 20 2 10
BITMAP
0001E0
0007F8
1E0FFC
3F0FFC
7F9E0E
70DC02
C07801
803001
802001
802001
802001
806001
806003
80F003
41D806
7F9E1E
3F0FFC
1E0FFC
0007F8
0001E0
ENDCHAR
STARTCHAR integral
ENCODING 8747
SWIDTH 324 0
DWIDTH 18 0
BBX 22 55 -2 -8
BITMAP
00001C
00007C
0000FC
00018C
000304
000300
000600
000600
000E00
000C00
000C00
001C00
001C00
001C00
003C00
003C00
003C00
003C00
003C00
003800
003800
003800
003800
007800
007800
007800
007800
007800
007800
007800
007000
007000
007000
00F000
00F000
00F000
00F000
00F000
00F000
00F000
00E000
00E000
00E000
00E000
01C000
01C000
01C000
018000
018000
030000
830000
C60000
FC0000
F80000
F00000
ENDCHAR
STARTCHAR approxequal
ENCODING 8776
SWIDTH 495 0
DWIDTH 28 0
BBX 22 18 3 11
BITMAP
000004
0F8004
3FE00C
7FF83C
FFFFFC
F0FFF8
C01FF0
8007C0
800000
000004
0F8004
3FE00C
7FF83C
FFFFFC
F0FFF8
C01FF0
8007C0
800000
ENDCHAR
STARTCHAR lessequal
ENCODING 8804
SWIDTH 495 0
DWIDTH 28 0
BBX 23 34 2 0
BITMAP
000002
000006
00001E
00007E
0000FE
0003FC
000FF0
003FC0
007F80
01FE00
07F800
0FE000
3FC000
FF0000
FC0000
FF0000
3FC000
0FF000
07F800
01FE00
007F80
001FE0
000FF0
0003FC
0000FE
00003E
00001E
000006
000002
000000
FFFFFE
FFFFFE
FFFFFE
FFFFFE
ENDCHAR
STARTCHAR greaterequal
ENCODING 8805
SWIDTH 495 0
DWIDTH 28 0
BBX 23 34 2 0
BITMAP
800000
E00000
F80000
FC0000
FF0000
3FC000
0FE000
07F800
01FE00
007F80
003FC0
000FF0
0003FC
0000FE
00007E
0000FE
0003FC
000FF0
003FC0
007F80
01FE00
07F800
1FE000
3FC000
FF0000
FC0000
F00000
E00000
800000
000000
FFFFFE
FFFFFE
FFFFFE
FFFFFE
ENDCHAR
STARTCHAR uniF001
ENCODING 61441
SWIDTH 536 0
DWIDTH 30 0
BBX 24 39 0 0
BITMAP
1FFFFC
3FFFFC
DFFFF9
EFFFF3
F7FFE7
FBFFCF
FC001F
FC003F
FC003F
00003F
00003F
00003F
00003F
00003F
00001F
00000F
07FFE7
0FFFF2
1FFFF8
1FFFF8
0FFFF0
07FFE0
000000
000000
000000
000000
000000
000000
000000
000000
000000
000000
000000
01FFC0
07FFE0
0FFFF0
1FFFF8
3FFFFC
3FFFFC
ENDCHAR
STARTCHAR uniF002
ENCODING 61442
SWIDTH 536 0
DWIDTH 30 0
BBX 24 39 0 0
BITMAP
1FFFFC
3FFFFC
DFFFF9
EFFFF3
F7FFE7
FBFFCF
FC001F
FC003F
FC003F
00003F
00003F
00003F
00003F
00003F
00001F
00000F
07FFE7
0FFFF2
1FFFF8
1FFFF8
0FFFF0
07FFE0
000000
000000
000000
000000
000000
000000
000000
000000
000000
000000
000000
01FFC0
07FFE0
0FFFF0
1FFFF8
3FFFFC
3FFFFC
ENDCHAR
STARTCHAR uniF001.dup6
ENCODING 64257
SWIDTH 536 0
DWIDTH 30 0
BBX 24 39 0 0
BITMAP
1FFFFC
3FFFFC
DFFFF9
EFFFF3
F7FFE7
FBFFCF
FC001F
FC003F
FC003F
00003F
00003F
00003F
00003F
00003F
00001F
00000F
07FFE7
0FFFF2
1FFFF8
1FFFF8
0FFFF0
07FFE0
000000
000000
000000
000000
000000
000000
000000
000000
000000
000000
000000
01FFC0
07FFE0
0FFFF0
1FFFF8
3FFFFC
3FFFFC
ENDCHAR
STARTCHAR uniF002.dup7
ENCODING 64258
SWIDTH 536 0
DWIDTH 30 0
BBX 24 39 0 0
BITMAP
1FFFFC
3FFFFC
DFFFF9
EFFFF3
F7FFE7
FBFFCF
FC001F
FC003F
FC003F
00003F
00003F
00003F
00003F
00003F
00001F
00000F
07FFE7
0FFFF2
1FFFF8
1FFFF8
0FFFF0
07FFE0
000000
000000
000000
000000
000000
000000
000000
000000
000000
000000
000000
01FFC0
07FFE0
0FFFF0
1FFFF8
3FFFFC
3FFFFC
ENDCHAR
STARTCHAR .notdef
ENCODING -1
SWIDTH 500 0
DWIDTH 28 0
BBX 22 39 3 0
BITMAP
FFFFFC
800004
800004
800004
800004
800004
80F804
81FE04
820F04
800F04
800704
800704
800F04
800E04
800E04
801C04
801804
803804
803004
806004
804004
80C004
80C004
808004
80C004
804004
804004
800004
804004
80E004
81F004
80F004
806004
804004
800004
800004
800004
800004
FFFFFC
ENDCHAR
STARTCHAR nonmarkingreturn
ENCODING -1
SWIDTH 248 0
DWIDTH 14 0
BBX 1 1 0 0
BITMAP
00
ENDCHAR
ENDFONT
